<?xml version="1.0" encoding="UTF-8"?>
<svg width="243px" height="192px" viewBox="0 0 243 192" version="1.1" xmlns="http://www.w3.org/2000/svg" xmlns:xlink="http://www.w3.org/1999/xlink">
    <title>export</title>
    <defs>
        <linearGradient x1="98.1009273%" y1="57.2502462%" x2="1.6896262%" y2="41.033859%" id="linearGradient-1">
            <stop stop-color="#8849B0" offset="0%"></stop>
            <stop stop-color="#5271AD" offset="54.1828986%"></stop>
            <stop stop-color="#3B84A1" offset="81.3052477%"></stop>
            <stop stop-color="#70BBC1" offset="97.8%"></stop>
            <stop stop-color="#78CFE1" offset="100%"></stop>
        </linearGradient>
        <linearGradient x1="104.158548%" y1="72.2686644%" x2="27.7670709%" y2="40.8903922%" id="linearGradient-2">
            <stop stop-color="#EEF4FB" offset="0%"></stop>
            <stop stop-color="#E3EDF8" offset="31.1%"></stop>
            <stop stop-color="#CFE1F3" offset="100%"></stop>
        </linearGradient>
    </defs>
    <g id="Page-1" stroke="none" stroke-width="1" fill="none" fill-rule="evenodd">
        <g id="export" transform="translate(0.000888, 0.000238)">
            <path d="M83.5491124,57.6837624 C129.574112,41.1277624 164.218112,-31.1372376 218.478112,27.0737624 C272.738112,85.2847624 227.715112,173.507762 162.444112,183.942762 C97.1731124,194.377762 21.5891124,165.942762 8.01911242,119.527762 C-15.1698876,40.2217624 52.6741124,68.7897624 83.5491124,57.6837624 Z" id="Path" fill="#F0F0F0" fill-rule="nonzero"></path>
            <path d="M80.2661124,52.9057624 C126.292112,36.3507624 160.939112,-35.9152376 215.198112,22.2987624 C269.457112,80.5127624 224.435112,168.732762 159.164112,179.167762 C93.8931124,189.602762 18.3091124,161.167762 4.73911242,114.752762 C-18.4518876,35.4437624 49.3911124,64.0117624 80.2661124,52.9057624 Z" id="Path" fill="url(#linearGradient-1)" fill-rule="nonzero"></path>
            <path d="M149.320112,27.3067624 L148.854112,25.9717624 L148.388112,27.3067624 C147.925092,28.5045669 146.988393,29.4582699 145.799112,29.9427624 L145.799112,29.9427624 C146.988461,30.427154 147.925194,31.3808921 148.388112,32.5787624 L148.854112,33.9137624 L149.320112,32.5787624 C149.783132,31.3809579 150.719831,30.4272549 151.909112,29.9427624 L151.909112,29.9427624 C150.719831,29.4582699 149.783132,28.5045669 149.320112,27.3067624 L149.320112,27.3067624 Z" id="Path" fill="#FFFFFF" fill-rule="nonzero"></path>
            <path d="M97.2181124,124.598762 L96.7521124,123.263762 L96.2861124,124.598762 C95.8230924,125.796566 94.8863934,126.750269 93.6971124,127.234762 L93.6971124,127.234762 C94.8863934,127.719255 95.8230924,128.672958 96.2861124,129.870762 L96.7521124,131.205762 L97.2181124,129.870762 C97.6810304,128.672892 98.6177634,127.719154 99.8071124,127.234762 L99.8071124,127.234762 C98.6177634,126.75037 97.6810304,125.796632 97.2181124,124.598762 L97.2181124,124.598762 Z" id="Path" fill="#FFFFFF" fill-rule="nonzero"></path>
            <path d="M223.439112,62.5637624 L223.131112,61.6827624 L222.824112,62.5637624 C222.518412,63.3518633 221.901761,63.979364 221.119112,64.2987624 L221.119112,64.2987624 C221.903692,64.6183948 222.521642,65.247561 222.827112,66.0377624 L223.134112,66.9187624 L223.442112,66.0377624 C223.747582,65.247561 224.365532,64.6183948 225.150112,64.2987624 L225.150112,64.2987624 C224.36519,63.9807246 223.746186,63.3530385 223.439112,62.5637624 L223.439112,62.5637624 Z" id="Path" fill="#FFFFFF" fill-rule="nonzero"></path>
            <path d="M76.8681124,72.2737624 L76.5611124,71.3927624 L76.2541124,72.2737624 C75.9487447,73.0640296 75.3307597,73.6932309 74.5461124,74.0127624 L74.5461124,74.0127624 C75.330692,74.3323948 75.9486425,74.961561 76.2541124,75.7517624 L76.5611124,76.6327624 L76.8681124,75.7517624 C77.1735823,74.961561 77.7915328,74.3323948 78.5761124,74.0127624 L78.5761124,74.0127624 C77.7915328,73.69313 77.1735823,73.0639638 76.8681124,72.2737624 Z" id="Path" fill="#FFFFFF" fill-rule="nonzero"></path>
            <polygon id="Path" fill="#C7C7C7" fill-rule="nonzero" points="55.8901124 191.266762 57.6071124 191.266762 71.6101124 123.006762 68.0631124 123.006762"></polygon>
            <polygon id="Path" fill="#C7C7C7" fill-rule="nonzero" points="188.017112 191.266762 186.300112 191.266762 172.297112 123.006762 175.844112 123.006762"></polygon>
            <path d="M53.6271124,81.9177624 C53.0725775,82.5478272 52.6902233,83.3104688 52.5171124,84.1317624 C52.742245,83.5151683 53.140507,82.9766291 53.6641124,82.5807624 C54.3691124,82.1327624 55.3061124,82.1937624 56.0171124,81.7547624 C56.6376332,81.2707473 57.0939928,80.6073325 57.3241124,79.8547624 C56.7934513,80.3216486 56.1760372,80.6794566 55.5071124,80.9077624 C54.7937982,81.0495579 54.1391266,81.4012698 53.6271124,81.9177624 L53.6271124,81.9177624 Z" id="Path" fill="#482C3B" fill-rule="nonzero"></path>
            <rect id="Rectangle" fill="#A6AEBA" fill-rule="nonzero" x="59.6421124" y="158.356762" width="2.607" height="25.264"></rect>
            <rect id="Rectangle" fill="#D2DCEB" fill-rule="nonzero" x="58.8501124" y="154.677762" width="4.191" height="3.678"></rect>
            <rect id="Rectangle" fill="#D2DCEB" fill-rule="nonzero" x="59.3631124" y="173.897762" width="3.165" height="7.884"></rect>
            <rect id="Rectangle" fill="#D2DCEB" fill-rule="nonzero" x="58.8501124" y="181.780762" width="4.191" height="3.678"></rect>
            <rect id="Rectangle" fill="#A6AEBA" fill-rule="nonzero" x="55.8651124" y="147.714762" width="10.16" height="6.963"></rect>
            <rect id="Rectangle" fill="#A6AEBA" fill-rule="nonzero" x="47.2801124" y="145.632762" width="28.344" height="5.214" rx="0.541"></rect>
            <polygon id="Path" fill="#A6AEBA" fill-rule="nonzero" points="50.8471124 188.972762 58.8491124 185.005762 58.8491124 182.239762 49.7971124 188.306762"></polygon>
            <circle id="Oval" fill="#A6AEBA" fill-rule="nonzero" cx="49.7971124" cy="189.750762" r="1.875"></circle>
            <circle id="Oval" fill="#A6AEBA" fill-rule="nonzero" cx="60.9451124" cy="189.750762" r="1.875"></circle>
            <polygon id="Path" fill="#A6AEBA" fill-rule="nonzero" points="71.0421124 188.972762 63.0411124 185.005762 63.0411124 182.239762 72.0931124 188.306762"></polygon>
            <circle id="Oval" fill="#A6AEBA" fill-rule="nonzero" cx="72.0931124" cy="189.750762" r="1.875"></circle>
            <rect id="Rectangle" fill="#A6AEBA" fill-rule="nonzero" x="60.4381124" y="183.619762" width="1.015" height="6.107"></rect>
            <path d="M42.5681124,148.488762 C41.6300886,148.52104 40.7979074,147.89127 40.5741124,146.979762 C39.8891124,144.155762 38.6451124,138.879762 38.6171124,125.711762 C38.4782812,115.501273 37.1042926,105.345106 34.5251124,95.4647624 C34.2358637,94.1741939 34.8203113,92.8456091 35.9671124,92.1867624 L35.9671124,92.1867624 C36.5876698,91.829626 37.291125,91.6417624 38.0071124,91.6417624 L63.2641124,91.6417624 C63.2641124,91.6417624 73.6471124,110.214762 75.0091124,116.578762 C76.3711124,122.942762 78.2731124,147.371762 78.2731124,147.371762 L42.5681124,148.488762 Z" id="Path" fill="#D0DFE1" fill-rule="nonzero"></path>
            <path d="M43.3921124,148.537762 C43.3921124,148.537762 41.0331124,143.912762 40.9921124,125.712762 C40.9601124,110.726762 37.9821124,98.3807624 37.1231124,93.6127624 C37.034985,93.1236338 37.1686244,92.6206276 37.4878994,92.2397382 C37.8071743,91.8588488 38.27911,91.6394146 38.7761124,91.6407501 L65.6391124,91.6407501 C65.6391124,91.6407501 76.0221124,110.213762 77.3841124,116.577762 C78.7461124,122.941762 80.6481124,147.370762 80.6481124,147.370762 L43.3921124,148.537762 Z" id="Path" fill="#B0BEBF" fill-rule="nonzero"></path>
            <path d="M67.8941124,148.540762 L42.3241124,148.540762 C41.6011717,148.540762 41.0151124,147.954703 41.0151124,147.231762 L41.0151124,147.231762 L41.0151124,142.998762 L67.8941124,142.998762 L67.8941124,148.535762 L67.8941124,148.535762 L67.8941124,148.540762 Z" id="Path" fill="#D0DFE1" fill-rule="nonzero"></path>
            <path d="M85.0671124,148.540762 L47.280107,148.540762 L47.280107,144.640762 C47.2793158,144.205553 47.4516439,143.787895 47.7591024,143.479874 C48.0665609,143.171853 48.4839023,142.998762 48.9191124,142.998762 L85.0671124,142.998762 C85.9723071,142.998762 86.7061148,143.732567 86.7061148,144.637762 L86.7061148,144.637762 L86.7061148,146.898762 C86.7066432,147.333452 86.5344721,147.750549 86.227475,148.058296 C85.9204779,148.366043 85.5038023,148.539232 85.0691124,148.539762 L85.0691124,148.539762 L85.0671124,148.540762 Z" id="Path" fill="#B0BEBF" fill-rule="nonzero"></path>
            <path d="M51.0831124,85.2457624 C51.0831124,85.2457624 54.9901124,84.0087624 55.3831124,82.3087624 C55.7031124,80.9277624 56.2131124,76.6377624 56.2131124,76.6377624 L63.0271124,76.6377624 C62.892218,78.3264061 62.892218,80.0231187 63.0271124,81.7117624 C63.6751124,84.7977624 67.5461124,85.8117624 67.5461124,85.8117624 L68.0981124,95.4547624 L58.0551124,103.874762 L48.3641124,94.1387624 L51.0831124,85.2457624 Z" id="Path" fill="#FFE0BC" fill-rule="nonzero"></path>
            <path d="M66.6641124,66.1287624 C68.3821124,68.4207624 68.0321124,68.7447624 67.7961124,71.9017624 C67.6290067,74.1173347 67.1728033,76.3015303 66.4391124,78.3987624 C65.9761124,79.5887624 63.5531124,84.7057624 59.2331124,82.8377624 C56.7736791,81.7021269 54.7199848,79.8420786 53.3471124,77.5067624 C52.7146392,75.6614276 52.4031294,73.7213404 52.4261124,71.7707624 C52.3821124,69.6707624 52.3721124,66.9467624 52.4471124,65.3807624 C52.7151124,59.8507624 63.5211124,61.9347624 66.6641124,66.1287624 Z" id="_Path_" fill="#FFE0BC" fill-rule="nonzero"></path>
            <path d="M77.9101124,131.115762 C81.6301124,130.309762 83.7021124,131.505762 85.9311124,134.179762 C88.1601124,136.853762 87.2681124,143.316762 85.9311124,148.664762 C84.5941124,154.012762 79.4681124,189.644762 79.4681124,189.644762 L75.6801124,189.644762 C75.6801124,189.644762 74.7071124,175.604762 74.0391124,165.353762 C73.3711124,155.102762 75.6591124,140.418762 75.6591124,140.418762 L61.1941124,131.118762 C61.1941124,131.118762 74.5691124,131.839762 77.9101124,131.115762 Z" id="Path" fill="#0B5A70" fill-rule="nonzero"></path>
            <path d="M77.7321124,125.952762 C80.5721124,128.604762 88.9321124,133.075762 87.2651124,138.603762 L76.0651124,143.349762 C76.0651124,143.349762 64.6851124,139.224762 61.1941124,131.114762 L57.7041124,123.004762 L65.2041124,120.020762 L77.7321124,125.952762 Z" id="Path" fill="#0B5A70" fill-rule="nonzero"></path>
            <path d="M69.5521124,133.079762 C71.6121124,134.567762 77.1791124,137.017762 76.0651124,143.350762 C75.4971124,146.580762 66.3911124,166.090762 61.4171124,174.289762 C58.8821124,178.468762 54.3671124,187.214762 54.3671124,187.214762 L50.1331124,188.226762 C50.1331124,188.226762 53.3951124,177.610762 55.6231124,167.805762 C57.8511124,158.000762 64.3391124,146.298762 64.3391124,146.298762 C61.6722995,144.501964 58.8793903,142.899809 55.9821124,141.504762 C52.4161124,139.944762 50.4981124,139.304762 55.8461124,134.183762 C61.1941124,129.062762 65.5391124,130.181762 69.5521124,133.079762 Z" id="Path" fill="#0B5A70" fill-rule="nonzero"></path>
            <path d="M77.7321124,102.909762 C78.18533,105.129329 78.9248462,107.280649 79.9321124,109.309762 C80.8221124,110.862762 99.1911124,117.632762 99.1911124,117.632762 L88.4611124,117.632762 C88.4611124,117.632762 78.2481124,116.293762 75.3341124,112.376762 C73.2188467,109.370144 71.3411596,106.203219 69.7181124,102.904762 L77.7321124,102.904762 L77.7321124,102.909762 Z" id="Path" fill="#F7D4B2" fill-rule="nonzero"></path>
            <path d="M71.1531124,87.1547624 C73.0531124,87.9997624 74.8081124,92.7997624 76.2111124,96.8897624 C76.9543113,98.8292453 77.4648767,100.850023 77.7321124,102.909762 C77.7321124,102.909762 72.8231124,105.716762 70.2191124,105.014762 C70.2191124,105.014762 67.7461124,96.1307624 69.4491124,91.6427624 L71.1531124,87.1547624 Z" id="Path" fill="#0B5A70" fill-rule="nonzero"></path>
            <path d="M61.6821124,126.273762 C67.0341124,126.059762 72.3821124,125.929762 77.7331124,125.952762 C75.1331124,124.266762 72.8331124,123.091762 72.3331124,122.591762 C71.2191124,121.477762 71.5971124,111.551762 72.4161124,108.467762 C73.2351124,105.383762 73.1851124,101.811762 72.5921124,100.220762 C71.9991124,98.6297624 71.1481124,87.1547624 71.1481124,87.1547624 L67.5391124,85.8137624 C67.5391124,85.8137624 68.6451124,94.1387624 59.8971124,94.1387624 C51.1141124,94.1387624 51.0761124,85.2457624 51.0761124,85.2457624 L45.4761124,86.4857624 C45.4761124,86.4857624 45.0631124,97.3257624 45.2711124,102.244762 C45.4791124,107.163762 47.8161124,115.683762 48.4841124,120.144762 C49.0041124,123.613762 48.0411124,125.734762 47.3781124,128.289762 C51.9581304,126.646863 56.826426,125.960728 61.6821124,126.273762 L61.6821124,126.273762 Z" id="Path" fill="#0B5A70" fill-rule="nonzero"></path>
            <path d="M54.6301124,186.498762 C53.4301124,186.258762 53.0021124,186.738762 51.9191124,187.460762 C51.235147,187.900087 50.4463563,188.148979 49.6341124,188.181762 L49.6341124,191.428762 L57.9981124,191.428762 L54.6301124,186.498762 Z" id="Path" fill="#8B4200" fill-rule="nonzero"></path>
            <path d="M80.1981124,187.098762 C80.1981124,187.098762 80.0761124,188.224762 78.2721124,188.732762 C77.1576942,188.996588 75.9890896,188.617977 75.2411124,187.750762 L74.8411124,191.428762 L89.0981124,191.513762 L80.1981124,187.098762 Z" id="Path" fill="#8B4200" fill-rule="nonzero"></path>
            <path d="M80.4481124,116.788762 C78.8481124,116.598762 77.3101124,115.100762 71.1081124,115.026762 C67.5832132,114.542935 64.0880997,113.862541 60.6391124,112.988762 C58.5541008,112.432687 56.5621454,111.573168 54.7271124,110.437762 C54.7271124,110.437762 52.4541124,101.963762 51.5871124,96.5887624 C49.0661124,96.3117624 46.5521124,95.9887624 44.0541124,95.5657624 C43.9651124,102.277762 48.7201124,114.211762 50.3031124,115.401762 C53.3841124,117.719762 60.6251124,117.601762 62.3641124,117.635762 C66.3921124,117.708762 83.5561124,118.171762 83.5561124,118.171762 C83.5561124,118.171762 84.8751124,117.314762 80.4481124,116.788762 Z" id="Path" fill="#FFE0BC" fill-rule="nonzero"></path>
            <path d="M53.6061124,105.077762 C53.6061124,105.077762 51.3221124,91.6667624 50.6611124,90.2557624 C47.2391124,82.9627624 42.5391124,86.8487624 43.2311124,92.4917624 C43.5251124,94.8917624 43.7121124,101.103762 44.9311124,106.968762 C47.9310712,107.02756 50.9027874,106.379777 53.6061124,105.077762 L53.6061124,105.077762 Z" id="Path" fill="#0B5A70" fill-rule="nonzero"></path>
            <polygon id="Path" fill="#A6AEBA" fill-rule="nonzero" points="76.7931124 118.172762 83.5521124 118.172762 90.3111124 94.5247624 85.1721124 94.5247624"></polygon>
            <polygon id="Path" fill="#D2DCEB" fill-rule="nonzero" points="78.7331124 118.172762 105.112112 118.172762 111.871112 94.5247624 85.4921124 94.5247624"></polygon>
            <rect id="Rectangle" fill="#D2DCEB" fill-rule="nonzero" x="74.8521124" y="117.637762" width="30.26" height="1.764"></rect>
            <rect id="Rectangle" fill="#A6AEBA" fill-rule="nonzero" x="59.7221124" y="117.637762" width="15.13" height="1.764"></rect>
            <ellipse id="Oval" fill="#A6AEBA" fill-rule="nonzero" transform="translate(95.804418, 108.589134) rotate(-67.133000) translate(-95.804418, -108.589134) " cx="95.8044184" cy="108.589134" rx="3.557" ry="2.803"></ellipse>
            <path d="M47.3861124,128.285762 C46.3861124,133.085762 48.7471124,143.558762 64.3391124,146.295762 L73.2391124,149.895762 C75.390888,147.24082 76.2765539,143.77887 75.6641124,140.416762 C74.5491124,134.916762 68.3051124,132.826762 64.1911124,126.176762 C64.1911124,126.176762 57.7281124,123.476762 53.5751124,124.920762 C51.3149471,125.634072 49.2135701,126.776604 47.3861124,128.285762 L47.3861124,128.285762 Z" id="Path" fill="#0B5A70" fill-rule="nonzero"></path>
            <path d="M67.9981124,69.3987624 C67.9981124,69.3987624 66.1221124,69.4717624 63.8171124,65.9987624 C63.8171124,65.9987624 64.0651124,67.5717624 61.8231124,69.6907624 C59.5811124,71.8097624 57.5701124,71.2357624 57.2321124,72.2587624 C57.0268727,72.8880728 56.9028689,73.5410247 56.8631124,74.2017624 C56.5427117,74.1445195 56.2682822,73.9390682 56.1231124,73.6477624 C55.9536672,73.1037807 55.6936876,72.5922735 55.3541124,72.1347624 C54.3301124,71.4567624 52.5701124,72.3657624 53.1341124,74.3587624 C53.4627981,75.2155639 54.0589511,75.9435719 54.8341124,76.4347624 C54.8081124,79.8347624 56.1961124,80.8827624 56.1961124,80.8827624 C56.1961124,80.8827624 53.8961124,81.9277624 52.7201124,81.4487624 C51.0391124,80.7597624 50.6081124,79.6987624 50.6691124,77.7987624 C49.82124,77.6314573 49.0390477,77.2247451 48.4151124,76.6267624 C46.0661124,74.2957624 48.7751124,67.6557624 49.8631124,66.8357624 C49.8631124,66.8357624 47.2951124,63.1987624 50.5221124,60.7557624 C53.7961124,58.2767624 55.0611124,62.2837624 55.0611124,62.2837624 C56.1481124,61.4637624 60.6061124,61.1837624 62.8771124,62.0337624 C69.2691124,64.4177624 67.9981124,69.3987624 67.9981124,69.3987624 Z" id="Path" fill="#482C3B" fill-rule="nonzero"></path>
            <path d="M63.6651124,65.9617624 C63.8651124,67.2617624 63.6751124,70.2787624 60.1951124,72.6407624" id="Path" stroke="#482C3B" stroke-width="0.25"></path>
            <rect id="Rectangle" fill="#A6AEBA" fill-rule="nonzero" x="206.192112" y="158.355762" width="2.607" height="25.264"></rect>
            <rect id="Rectangle" fill="#D2DCEB" fill-rule="nonzero" x="205.400112" y="154.677762" width="4.191" height="3.678"></rect>
            <rect id="Rectangle" fill="#D2DCEB" fill-rule="nonzero" x="205.913112" y="173.896762" width="3.165" height="7.884"></rect>
            <rect id="Rectangle" fill="#D2DCEB" fill-rule="nonzero" x="205.400112" y="181.781762" width="4.191" height="3.678"></rect>
            <rect id="Rectangle" fill="#A6AEBA" fill-rule="nonzero" x="202.416112" y="147.714762" width="10.16" height="6.963"></rect>
            <rect id="Rectangle" fill="#A6AEBA" fill-rule="nonzero" x="192.816112" y="145.632762" width="28.344" height="5.214" rx="0.541"></rect>
            <polygon id="Path" fill="#A6AEBA" fill-rule="nonzero" points="217.593112 188.972762 209.592112 185.005762 209.592112 182.239762 218.644112 188.306762"></polygon>
            <circle id="Oval" fill="#A6AEBA" fill-rule="nonzero" cx="218.644112" cy="189.750762" r="1.875"></circle>
            <circle id="Oval" fill="#A6AEBA" fill-rule="nonzero" cx="207.496112" cy="189.750762" r="1.875"></circle>
            <polygon id="Path" fill="#A6AEBA" fill-rule="nonzero" points="197.398112 188.972762 205.400112 185.005762 205.400112 182.239762 196.348112 188.306762"></polygon>
            <circle id="Oval" fill="#A6AEBA" fill-rule="nonzero" cx="196.348112" cy="189.750762" r="1.875"></circle>
            <rect id="Rectangle" fill="#A6AEBA" fill-rule="nonzero" x="206.988112" y="183.620762" width="1.015" height="6.107"></rect>
            <path d="M225.873112,148.488762 C226.811136,148.52104 227.643317,147.89127 227.867112,146.979762 C228.552112,144.155762 229.796112,138.879762 229.824112,125.711762 C229.855112,111.176762 237.474112,100.123762 238.515112,95.4647624 C238.804361,94.1741939 238.219913,92.8456091 237.073112,92.1867624 L237.073112,92.1867624 C236.452555,91.829626 235.749099,91.6417624 235.033112,91.6417624 L205.177112,91.6417624 C205.177112,91.6417624 194.794112,110.214762 193.432112,116.578762 C192.070112,122.942762 190.168112,147.371762 190.168112,147.371762 L225.873112,148.488762 Z" id="Path" fill="#D0DFE1" fill-rule="nonzero"></path>
            <path d="M225.049112,148.537762 C225.049112,148.537762 227.408112,143.912762 227.449112,125.712762 C227.481112,110.726762 235.057112,98.3807624 235.916112,93.6127624 C236.004239,93.1236338 235.8706,92.6206276 235.551325,92.2397382 C235.23205,91.8588488 234.760114,91.6394146 234.263112,91.6407501 L202.798112,91.6407501 C202.798112,91.6407501 192.415112,110.213762 191.053112,116.577762 C189.691112,122.941762 187.789112,147.370762 187.789112,147.370762 L225.049112,148.537762 Z" id="Path" fill="#B0BEBF" fill-rule="nonzero"></path>
            <path d="M192.278112,142.998762 L227.426112,142.998762 L227.426112,147.226762 C227.426112,147.949703 226.840053,148.535762 226.117112,148.535762 L192.278112,148.535762 L192.278112,142.998762 L192.278112,142.998762 Z" id="Path" fill="#D0DFE1" fill-rule="nonzero"></path>
            <path d="M183.374112,142.998762 L195.031112,142.998762 C195.465802,142.998762 195.882688,143.171442 196.19006,143.478814 C196.497432,143.786186 196.670112,144.203072 196.670112,144.637762 L196.670112,144.637762 L196.670112,148.537762 L183.370112,148.537762 C182.467814,148.533906 181.738553,147.801068 181.73911,146.898762 L181.73911,144.639762 C181.738006,143.735347 182.469699,143.000969 183.374112,142.998762 Z" id="Path" fill="#B0BEBF" fill-rule="nonzero"></path>
            <path d="M198.505112,86.1787624 C196.072112,88.6007624 195.905112,100.771762 193.446112,107.088762 C193.446112,107.088762 176.671112,113.646762 169.025112,115.572762 L171.679112,118.372762 C171.679112,118.372762 194.408112,112.909762 197.290112,110.991762 C201.696112,108.060762 204.257112,96.2007624 204.677112,90.2677624 C205.097112,84.3347624 201.048112,83.6477624 198.505112,86.1787624 Z" id="Path" fill="#F7D4B2" fill-rule="nonzero"></path>
            <path d="M170.890112,116.012762 L169.025112,115.573762 C169.025112,115.573762 165.189112,115.222762 163.961112,115.047762 C162.733112,114.872762 161.261112,116.275762 159.587112,116.801762 C158.430715,117.196807 157.323472,117.723251 156.287112,118.370762 L157.627112,118.370762 L160.360112,118.818762 L162.824112,118.370762 C164.362589,118.22336 165.911635,118.22336 167.450112,118.370762 C168.857139,118.520501 170.276085,118.520501 171.683112,118.370762 L170.890112,116.012762 Z" id="Path" fill="#F7D4B2" fill-rule="nonzero"></path>
            <path d="M187.492112,128.278762 C182.287112,130.003762 175.903112,132.769762 174.034112,134.508762 C172.165112,136.247762 168.482112,138.716762 171.452112,148.273762 C173.352112,154.379762 181.623112,185.312762 181.623112,185.312762 L185.815112,184.566762 C185.815112,184.566762 184.326112,166.643762 182.834112,153.234762 C182.111112,146.734762 181.865112,144.921762 181.865112,144.921762 L187.492112,142.630762 C194.625112,139.699762 192.180112,127.448762 192.180112,127.448762 L187.492112,128.278762 Z" id="Path" fill="#F7D4B2" fill-rule="nonzero"></path>
            <path d="M175.839112,132.641762 C173.970112,134.380762 172.648112,133.798762 169.839112,143.404762 C168.046112,149.542762 161.507112,180.497762 161.507112,180.497762 L165.413112,182.197762 C170.695112,167.397762 170.688112,167.415762 176.860112,155.406762 C178.716067,151.728932 180.140527,147.848831 181.105112,143.843762 L192.514112,143.158762 C199.647112,140.227762 197.202112,129.815762 197.202112,129.815762 C197.202112,129.815762 177.709112,130.898762 175.839112,132.641762 Z" id="Path" fill="#FFE0BC" fill-rule="nonzero"></path>
            <path d="M219.059112,123.437762 C219.059112,128.437762 222.677112,133.957762 218.484112,139.637762 C214.692112,144.778762 192.517112,143.148762 192.517112,143.148762 C192.517112,143.148762 195.645112,137.731762 192.675112,133.630762 C190.775112,131.009762 186.401112,128.582762 186.401112,128.582762 L198.801112,124.575762 L208.760112,116.839762 L219.059112,123.437762 Z" id="Path" fill="#FFD04D" fill-rule="nonzero"></path>
            <path d="M206.616112,85.0757624 C205.945112,87.3557624 201.188112,87.3107624 197.675112,83.0537624 C194.162112,78.7967624 191.618112,71.5407624 195.123112,66.4147624 C198.628112,61.2887624 203.316112,71.2147624 204.913112,76.4967624 C205.817412,79.2791852 206.389059,82.1589007 206.616112,85.0757624 L206.616112,85.0757624 Z" id="Path" fill="#B56537" fill-rule="nonzero"></path>
            <path d="M195.546112,66.3427624 C194.604112,67.4617624 195.506112,71.7237624 195.671112,72.3567624 C195.990112,73.5807624 195.371112,75.2657624 195.724112,75.5497624 C196.080784,75.7069728 196.470187,75.7755899 196.859112,75.7497624 C196.923112,75.7647624 198.574112,79.0027624 198.866112,79.6737624 C199.311112,80.6947624 201.705112,78.8857624 202.429112,79.6517624 C202.954112,80.2077624 202.977112,81.2367624 203.155112,82.5137624 L201.755112,88.1667624 L213.179112,85.9667624 C211.604384,83.6627435 210.205107,81.2435923 208.993112,78.7297624 C208.141112,76.4587624 209.206112,73.9757624 208.922112,70.9247624 C208.638112,67.8737624 207.276112,63.9527624 202.962112,63.5457624 C200.181247,63.2075117 197.410983,64.2523375 195.546112,66.3427624 Z" id="Path" fill="#FFE0BC" fill-rule="nonzero"></path>
            <path d="M199.159112,123.929762 C201.694308,123.523942 204.277916,123.523942 206.813112,123.929762 C211.565112,124.565762 218.608112,123.229762 218.608112,123.229762 C218.608112,123.229762 215.722112,108.348762 215.899112,101.598762 C216.076112,94.8487624 216.610112,87.5677624 216.610112,87.5677624 L203.955112,85.4367624 C203.955112,85.4367624 200.891112,86.5367624 199.155112,91.4757624 C197.419112,96.4147624 197.698112,117.742762 199.159112,123.929762 Z" id="Path" fill="#E4DDD7" fill-rule="nonzero"></path>
            <path d="M203.155112,82.5097624 C202.223112,83.4427624 199.155112,84.6407624 199.155112,85.9727624 C199.155112,87.3047624 196.755112,98.7607624 196.891112,101.158762 C197.027112,103.556762 197.905112,112.666762 197.372112,115.463762 C197.000927,118.449164 196.82289,121.455417 196.839112,124.463762 L199.155112,123.930762 C199.155112,123.930762 198.489112,108.086762 199.155112,102.230762 C199.821112,96.3747624 203.955112,85.5797624 203.955112,85.5797624 L202.401112,85.0467624 L203.155112,82.5097624 Z" id="Path" fill="#133A50" fill-rule="nonzero"></path>
            <path d="M207.760112,85.5737624 L203.960112,85.4407624 C203.960112,85.4407624 202.680112,91.3017624 202.680112,102.587762 C202.870952,110.05695 203.520845,117.507339 204.626112,124.896762 C206.862958,125.670292 209.204336,126.099522 211.570112,126.169762 C213.986528,126.245051 216.39013,125.790408 218.612112,124.837762 C218.226262,118.72718 218.226262,112.598344 218.612112,106.487762 C219.278112,97.4297624 221.700112,95.3697624 221.232112,89.4367624 C220.456112,79.5967624 211.552112,83.0427624 211.552112,83.0427624 L207.760112,85.5737624 Z" id="Path" fill="#133A50" fill-rule="nonzero"></path>
            <path d="M203.954112,85.4407624 C203.954112,85.4407624 210.082112,82.5097624 211.014112,80.6407624 C211.346597,81.3983465 211.527664,82.2136578 211.547112,83.0407624 C211.414112,83.8407624 205.553112,89.4347624 205.553112,89.4347624 L203.954112,85.4407624 Z" id="Path" fill="#FFD04D" fill-rule="nonzero"></path>
            <path d="M209.030112,86.1397624 C210.530112,78.5767624 206.510112,76.3527624 202.111112,73.6567624 C199.271335,71.7930999 196.883841,69.3184837 195.123112,66.4137624 C195.123112,66.4137624 196.823112,60.8787624 201.793112,59.7437624 C206.763112,58.6087624 213.104112,61.7057624 214.707112,69.5357624 C215.843112,75.0867624 217.329112,77.0437624 221.093112,79.7537624 C225.633112,83.0227624 226.993112,91.3537624 221.693112,95.3687624 C216.793112,99.0827624 219.626112,90.2617624 217.808112,85.3097624 C217.500112,84.4717624 213.690112,88.7307624 211.562112,89.4357624 C209.332112,90.1757624 208.789112,87.3567624 209.030112,86.1397624 Z" id="Path" fill="#B56537" fill-rule="nonzero"></path>
            <path d="M203.155112,82.5097624 C202.934066,83.5585895 203.231871,84.6496732 203.955112,85.4407624 L201.691112,88.6407624 C201.691112,88.6407624 201.025112,86.1097624 201.691112,85.0407624 C202.357112,83.9717624 203.155112,82.5097624 203.155112,82.5097624 Z" id="Path" fill="#FFD04D" fill-rule="nonzero"></path>
            <path d="M181.331112,183.070762 C181.331112,183.070762 181.453112,184.196762 183.257112,184.704762 C184.37153,184.968588 185.540135,184.589977 186.288112,183.722762 L186.688112,187.400762 L180.927112,191.462762 L176.139112,191.462762 L178.728112,188.589762 L181.331112,183.070762 Z" id="Path" fill="#133A50" fill-rule="nonzero"></path>
            <path d="M162.127112,177.975762 C161.639906,178.898188 161.952817,180.040423 162.842112,180.585762 C163.82336,181.176191 165.051715,181.171179 166.028112,180.572762 L165.289112,184.198762 L151.689112,179.942762 L162.127112,177.975762 Z" id="Path" fill="#133A50" fill-rule="nonzero"></path>
            <path d="M214.898112,87.3227624 C213.583112,90.4937624 209.722112,100.907762 207.261112,107.222762 C207.261112,107.222762 189.385112,112.948762 181.739112,114.874762 L184.393112,117.674762 C184.393112,117.674762 206.193112,114.336762 210.924112,112.132762 C215.724112,109.897762 220.264112,94.5237624 221.070112,90.4897624 C222.233112,84.6577624 216.314112,83.8987624 214.898112,87.3227624 Z" id="Path" fill="#FFE0BC" fill-rule="nonzero"></path>
            <path d="M183.598112,115.316762 L181.733112,114.878762 C181.733112,114.878762 177.897112,114.527762 176.669112,114.352762 C175.441112,114.177762 173.969112,115.580762 172.295112,116.106762 C171.138692,116.50175 170.031443,117.028197 168.995112,117.675762 L170.335112,117.675762 L173.068112,118.123762 L175.533112,117.675762 C177.071589,117.528354 178.620635,117.528354 180.159112,117.675762 C181.566142,117.825449 182.985082,117.825449 184.392112,117.675762 L183.598112,115.316762 Z" id="Path" fill="#FFE0BC" fill-rule="nonzero"></path>
            <path d="M146.168112,52.0347624 L151.018112,63.2797624 L149.774112,63.8157624 L144.922112,52.5647624 C144.867053,52.437182 144.925656,52.2891087 145.053112,52.2337624 L145.053112,52.2337624 L145.839112,51.8987624 C145.967518,51.8456274 146.114703,51.9064698 146.168112,52.0347624 Z" id="Path" fill="#364469" fill-rule="nonzero"></path>
            <path d="M146.139112,54.7827624 L146.948112,54.4337624 L145.587112,51.2787624 C145.490545,51.0555626 145.231515,50.9526665 145.008112,51.0487624 L145.008112,51.0487624 C144.784912,51.1453296 144.682016,51.4043592 144.778112,51.6277624 L146.139112,54.7827624 Z" id="Path" fill="#364469" fill-rule="nonzero"></path>
            <path d="M136.854112,65.3127624 C136.854112,65.3127624 141.622112,78.4127624 143.354112,78.3467624 C144.654112,78.2997624 153.373112,66.3857624 154.776112,64.3227624 C156.179112,62.2597624 158.901112,57.4137624 158.901112,57.4137624 L155.354112,56.3137624 C155.354112,56.3137624 149.254112,63.6657624 147.682112,64.9857624 C146.110112,66.3057624 145.455112,66.8007624 145.455112,66.8007624 L143.639112,61.8417624 L136.854112,65.3127624 Z" id="Path" fill="#F7D4B2" fill-rule="nonzero"></path>
            <path d="M139.491112,51.6687624 C141.411112,52.1797624 142.074112,53.8877624 142.899112,57.4147624 C143.457001,59.732632 144.132542,62.0205937 144.923112,64.2697624 L138.609112,67.2107624 C138.609112,67.2107624 137.470112,60.9417624 137.050112,56.9817624 C136.630112,53.0217624 137.816112,51.2227624 139.491112,51.6687624 Z" id="Path" fill="#364469" fill-rule="nonzero"></path>
            <path d="M113.561112,186.512762 L113.561112,191.150762 L122.474112,191.150762 C122.474112,191.150762 122.139112,189.471762 117.912112,188.697762 L117.290112,186.513762 L113.561112,186.513762 L113.561112,186.512762 Z" id="Path" fill="#133A50" fill-rule="nonzero"></path>
            <path d="M132.398112,186.512762 L132.398112,191.150762 L141.311112,191.150762 C141.311112,191.150762 140.976112,189.471762 136.749112,188.697762 L136.127112,186.513762 L132.398112,186.513762 L132.398112,186.512762 Z" id="Path" fill="#133A50" fill-rule="nonzero"></path>
            <path d="M115.509112,92.9987624 C115.509112,92.9987624 113.887112,107.744762 113.830112,123.585762 C113.773112,139.426762 112.830112,186.497762 112.830112,186.497762 L119.230112,186.497762 C119.230112,186.497762 125.830112,141.010762 128.224112,130.827762 C130.618112,120.644762 136.856112,93.1897624 136.856112,93.1897624 L115.509112,92.9987624 Z" id="Path" fill="#133A50" fill-rule="nonzero"></path>
            <path d="M125.344112,39.4477624 C125.344112,39.4477624 124.930112,42.6727624 124.590112,44.3137624 C124.420209,45.3473552 124.127122,46.3568781 123.717112,47.3207624 C122.522376,48.9237623 121.198996,50.4267363 119.760112,51.8147624 C119.760112,51.8147624 130.367112,57.4147624 133.485112,57.4147624 C136.603112,57.4147624 135.510112,51.1597624 135.510112,51.1597624 C135.510112,51.1597624 132.110112,48.4727624 131.603112,47.1147624 C131.185893,45.3779003 130.921881,43.6077788 130.814112,41.8247624 L125.344112,39.4477624 Z" id="Path" fill="#FFE0BC" fill-rule="nonzero"></path>
            <path d="M129.420112,109.181762 C129.420112,109.181762 130.620112,133.319762 130.859112,138.071762 C131.098112,142.823762 130.859112,186.471762 130.859112,186.471762 C130.859112,186.471762 136.854112,186.633762 136.854112,186.471762 C136.854112,186.309762 142.506112,140.441762 143.238112,128.730762 C143.970112,117.019762 143.538112,103.137762 144.513112,101.517762 C145.488112,99.8977624 141.889112,93.0727624 141.889112,93.0727624 L133.404112,95.3357624 L129.420112,109.181762 Z" id="Path" fill="#133A50" fill-rule="nonzero"></path>
            <path d="M121.920112,48.6617624 L111.020112,53.3617624 C111.020112,53.3617624 113.176112,62.1877624 113.296112,65.6957624 C113.416112,69.2037624 114.674112,96.9147624 114.674112,96.9147624 C114.674112,96.9147624 118.022112,102.100762 134.130112,100.035762 C140.341112,99.2357624 143.395112,96.2117624 143.395112,96.2117624 C143.395112,96.2117624 141.654112,65.6957624 141.174112,62.1877624 C140.694112,58.6797624 139.496112,51.6647624 139.496112,51.6647624 L134.239112,50.0477624 L132.095112,53.2477624 L121.920112,48.6617624 Z" id="Path" fill="#E9F2F4" fill-rule="nonzero"></path>
            <polygon id="Path" fill="#364469" fill-rule="nonzero" points="122.406112 46.7607624 132.093112 53.2497624 129.430112 56.3107624 121.920112 48.6617624"></polygon>
            <polygon id="Path" fill="#364469" fill-rule="nonzero" points="132.093112 53.2497624 134.735112 55.3707624 134.237112 50.0517624 133.248112 48.6617624"></polygon>
            <path d="M142.298112,72.2687624 L151.610112,74.9587624 C152.593386,75.2170772 153.624528,74.7604524 154.094112,73.8587624 L163.162112,54.4837624 C163.365159,54.0867978 163.37414,53.618456 163.186461,53.2139988 C162.998782,52.8095416 162.635344,52.5140122 162.201112,52.4127624 L152.971112,49.6857624 C151.290112,49.5207624 150.450112,49.8487624 150.024112,50.7407624 L140.939112,69.9687624 C140.510112,70.8707624 140.673112,71.4987624 142.298112,72.2687624 Z" id="_Path_2" fill="#97A3CC" fill-rule="nonzero"></path>
            <path d="M142.828112,72.4637624 L152.185112,75.1717624 C153.173149,75.4348904 154.211586,74.9779777 154.685112,74.0717624 L163.785112,54.6097624 C163.988335,54.2105941 163.996378,53.7400697 163.806915,53.3341893 C163.617452,52.9283089 163.251603,52.6323153 162.815112,52.5317624 L153.539112,49.7987624 C152.525024,49.5142727 151.449284,49.9713274 150.950112,50.8987624 L141.785112,70.2987624 C141.574875,70.7193505 141.571268,71.2135915 141.775345,71.6372029 C141.979422,72.0608143 142.368174,72.3660349 142.828112,72.4637624 Z" id="_Path_3" fill="url(#linearGradient-2)" fill-rule="nonzero"></path>
            <path d="M115.798112,67.2517624 C115.798112,67.2517624 124.456112,81.6217624 125.611112,82.1167624 C126.766112,82.6117624 141.704112,72.8857624 144.511112,71.0707624 C147.318112,69.2557624 149.663112,67.4707624 150.011112,67.1837624 C150.517039,66.1622582 150.904553,65.0862756 151.166112,63.9767624 C151.023292,63.814343 150.89229,63.6419017 150.774112,63.4607624 L150.403112,63.6607624 L150.603112,62.4957624 L150.252112,61.8357624 L149.912112,61.9487624 L149.798112,60.7697624 L149.282112,59.8827624 C149.282112,59.8827624 147.811112,61.5467624 146.903112,62.5367624 C146.301445,63.1775649 145.638257,63.7576863 144.923112,64.2687624 C144.965195,63.6361281 144.965195,63.0013967 144.923112,62.3687624 C144.916494,61.8968799 144.971969,61.4261766 145.088112,60.9687624 L143.641112,61.8387624 C143.641112,61.8387624 142.366112,65.8607624 142.118112,66.1787624 C141.313055,68.1096293 139.722653,69.6054517 137.746112,70.2907624 C134.586713,71.5350257 131.367018,72.6203834 128.099112,73.5427624 C128.344112,73.5077624 122.451112,62.8037624 122.451112,62.8037624 L115.798112,67.2517624 Z" id="Path" fill="#FFE0BC" fill-rule="nonzero"></path>
            <path d="M110.607112,58.7987624 C111.431112,62.7127624 117.162112,71.2547624 117.162112,71.2547624 L124.191112,65.9877624 C124.191112,65.9877624 121.439112,60.4877624 119.903112,57.6027624 C118.203112,54.4117624 116.618112,50.5357624 113.610112,51.6667624 C110.706112,52.7557624 109.947112,55.6607624 110.607112,58.7987624 Z" id="Path" fill="#364469" fill-rule="nonzero"></path>
            <path d="M137.667112,31.1987624 C138.417112,31.8777624 139.661112,33.2437624 139.561112,34.0407624 C139.448682,35.5485488 139.226764,37.0461642 138.897112,38.5217624 C138.497112,39.8427624 137.726112,43.3077624 137.161112,44.8287624 C136.596112,46.3497624 135.944112,48.4367624 135.476112,48.6287624 C133.640934,48.6032239 131.827238,48.2299656 130.131112,47.5287624 C129.358112,46.9617624 125.263112,42.4607624 126.131112,39.1287624 C126.131112,39.1287624 125.057112,39.2687624 124.398112,35.9777624 C124.226112,35.1197624 127.714112,32.6777624 128.257112,31.8297624 C129.575112,29.7617624 134.384112,31.3897624 135.757112,31.4957624 C136.408978,31.6200025 137.083751,31.515077 137.667112,31.1987624 L137.667112,31.1987624 Z" id="Path" fill="#FFE0BC" fill-rule="nonzero"></path>
            <path d="M139.561112,34.0367624 C139.448158,33.4168305 138.854049,33.0058341 138.234112,33.1187624 L138.225112,33.1187624 C136.633528,33.3359261 135.014283,33.2232563 133.468112,32.7877624 C132.424512,32.4701451 131.429281,32.0112218 130.510112,31.4237624 C130.354117,32.32677 130.02618,33.1914242 129.544112,33.9707624 C129.01443,34.5704645 128.641346,35.2918976 128.458112,36.0707624 C128.264894,36.504031 127.878105,36.8203596 127.415112,36.9237624 C127.415112,36.9237624 127.029112,35.0717624 126.199112,34.9417624 C124.554112,34.6837624 124.753112,36.9047624 125.430112,37.6277624 C125.863109,38.0852607 126.327216,38.5122786 126.819112,38.9057624 C126.700038,39.470642 126.523451,40.0218485 126.292112,40.5507624 C125.918945,41.1611832 125.464817,41.718247 124.942112,42.2067624 C124.942112,42.2067624 124.508112,37.7897624 123.463112,35.7637624 C122.418112,33.7377624 122.483112,30.0107624 125.500112,29.2267624 C126.027978,27.1428919 128.019378,25.7736442 130.154112,26.0267624 C134.119112,26.1957624 137.286112,27.7797624 139.034112,27.6117624 C139.819349,27.6031499 140.593162,27.4225822 141.301112,27.0827624 C141.301112,27.0827624 142.174112,29.9497624 141.037112,31.4697624 C140.421015,32.2478243 139.923613,33.1128858 139.561112,34.0367624 L139.561112,34.0367624 Z" id="Path" fill="#8B4200" fill-rule="nonzero"></path>
            <polygon id="Path" fill="#A6AEBA" fill-rule="nonzero" points="171.405112 118.172762 167.698112 118.172762 163.991112 94.5247624 166.810112 94.5247624"></polygon>
            <polygon id="Path" fill="#D2DCEB" fill-rule="nonzero" points="170.341112 118.172762 155.874112 118.172762 152.168112 94.5247624 166.634112 94.5247624"></polygon>
            <rect id="Rectangle" fill="#D2DCEB" fill-rule="nonzero" x="155.680112" y="117.636762" width="15.725" height="1.764"></rect>
            <rect id="Rectangle" fill="#A6AEBA" fill-rule="nonzero" x="171.405112" y="117.636762" width="19.826" height="1.764"></rect>
            <path d="M162.398112,107.498762 C162.817112,109.308762 162.522112,111.264762 161.740112,111.865762 C160.958112,112.466762 159.984112,111.487762 159.566112,109.676762 C159.148112,107.865762 159.442112,105.910762 160.224112,105.309762 C161.006112,104.708762 161.977112,105.688762 162.398112,107.498762 Z" id="Path" fill="#A6AEBA" fill-rule="nonzero"></path>
            <rect id="Rectangle" fill="#DBDBDB" fill-rule="nonzero" x="29.7971124" y="119.584762" width="178.065" height="3.422"></rect>
            <polygon id="Path" fill="#DBDBDB" fill-rule="nonzero" points="48.8001124 191.266762 50.5171124 191.266762 64.5201124 123.006762 60.9731124 123.006762"></polygon>
            <polygon id="Path" fill="#DBDBDB" fill-rule="nonzero" points="180.927112 191.266762 179.209112 191.266762 165.207112 123.006762 168.754112 123.006762"></polygon>
            <rect id="Rectangle" fill="#E9F2F4" fill-rule="nonzero" x="164.481112" y="27.6717624" width="24.049" height="23.81"></rect>
            <rect id="Rectangle" fill="#FFFFFF" fill-rule="nonzero" x="168.084112" y="31.2877624" width="8.422" height="17.012"></rect>
            <rect id="Rectangle" stroke="#E9F2F4" x="164.481112" y="23.1217624" width="24.049" height="4.55"></rect>
            <circle id="Oval" fill="#00A0B4" fill-rule="nonzero" cx="182.640112" cy="34.0657624" r="2.991"></circle>
            <polygon id="Path" fill="#FFFFFF" fill-rule="nonzero" points="182.404112 35.2427624 181.020112 33.4617624 182.274112 33.9857624 185.157112 31.4647624"></polygon>
            <circle id="Oval" fill="#00A0B4" fill-rule="nonzero" cx="182.640112" cy="42.9407624" r="2.991"></circle>
            <polygon id="Path" fill="#FFFFFF" fill-rule="nonzero" points="182.404112 44.1187624 181.020112 42.3367624 182.274112 42.8617624 185.157112 40.3397624"></polygon>
        </g>
    </g>
</svg>