<?xml version="1.0" encoding="UTF-8"?>
<svg width="636px" height="596px" viewBox="0 0 636 596" version="1.1" xmlns="http://www.w3.org/2000/svg" xmlns:xlink="http://www.w3.org/1999/xlink">
    <title>Untitled</title>
    <g id="Page-1" stroke="none" stroke-width="1" fill="none" fill-rule="evenodd">
        <g id="header-teamwork" fill-rule="nonzero">
            <rect id="Rectangle" fill="#D5DBDA" x="186.893" y="5.481" width="439.338" height="259.518"></rect>
            <rect id="Rectangle" fill="#FFFFFF" x="199.087" y="10.557" width="414.949" height="249.366"></rect>
            <rect id="Rectangle" fill="#EFEFEF" x="229.512" y="22.095" width="351.268" height="16.655"></rect>
            <rect id="Rectangle" fill="#A6A5A4" x="242.273" y="180.558" width="19.106" height="47.966"></rect>
            <rect id="Rectangle" fill="#7C61AA" x="285.326" y="138.45" width="19.106" height="90.074"></rect>
            <rect id="Rectangle" fill="#5E5866" x="328.38" y="147.764" width="19.106" height="80.76"></rect>
            <rect id="Rectangle" fill="#9A75C2" x="371.434" y="102.167" width="19.106" height="126.358"></rect>
            <g id="Group" opacity="0.471046375" style="mix-blend-mode: multiply;" transform="translate(285.000000, 138.000000)" fill="#000000">
                <rect id="Rectangle" opacity="0.26" x="0.326" y="0.45" width="8.769" height="90.074"></rect>
            </g>
            <g id="Group" opacity="0.15" style="mix-blend-mode: multiply;" transform="translate(242.000000, 180.000000)" fill="#000000">
                <rect id="Rectangle" opacity="0.26" x="0.273" y="0.558" width="8.769" height="47.966"></rect>
            </g>
            <g id="Group" opacity="0.62" style="mix-blend-mode: multiply;" transform="translate(371.000000, 102.000000)" fill="#000000">
                <rect id="Rectangle" opacity="0.26" x="0.434" y="0.167" width="8.769" height="126.358"></rect>
            </g>
            <g id="Group" opacity="0.15" style="mix-blend-mode: multiply;" transform="translate(328.000000, 147.000000)" fill="#000000">
                <rect id="Rectangle" opacity="0.26" x="0.38" y="0.764" width="8.769" height="80.76"></rect>
            </g>
            <polygon id="Path" fill="#D5DBDA" points="400.65 241.728 229.655 241.728 229.655 59.649 232.263 59.649 232.263 239.12 400.65 239.12"></polygon>
            <polygon id="Path" fill="#D5DBDA" points="247.218 158.095 245.476 156.154 290.207 115.988 331.639 124.989 376.503 75.043 378.444 76.786 332.566 127.86 290.957 118.821"></polygon>
            <polygon id="Path" fill="#D5DBDA" points="381.959 84.165 369.308 72.034 385.64 67.665"></polygon>
            <rect id="Rectangle" fill="#866BAA" x="416.842" y="169.14" width="16.034" height="16.034"></rect>
            <rect id="Rectangle" fill="#FFD04D" x="416.842" y="197.233" width="16.034" height="16.034"></rect>
            <rect id="Rectangle" fill="#EFEFEF" x="437.294" y="204.156" width="50.826" height="9.112"></rect>
            <rect id="Rectangle" fill="#EFEFEF" x="437.294" y="176.062" width="50.826" height="9.112"></rect>
            <rect id="Rectangle" fill="#7C61AA" x="511.139" y="169.14" width="16.034" height="16.034"></rect>
            <rect id="Rectangle" fill="#FFD04D" x="511.139" y="197.233" width="16.034" height="16.034"></rect>
            <rect id="Rectangle" fill="#EFEFEF" x="531.59" y="204.156" width="50.826" height="9.112"></rect>
            <rect id="Rectangle" fill="#EFEFEF" x="531.59" y="176.062" width="50.826" height="9.112"></rect>
            <rect id="Rectangle" fill="#EFEFEF" x="430.529" y="70.652" width="150.252" height="3.423"></rect>
            <rect id="Rectangle" fill="#EFEFEF" x="418.733" y="78.941" width="162.047" height="3.423"></rect>
            <rect id="Rectangle" fill="#EFEFEF" x="418.733" y="87.23" width="162.047" height="3.423"></rect>
            <rect id="Rectangle" fill="#EFEFEF" x="418.733" y="95.518" width="162.047" height="3.423"></rect>
            <rect id="Rectangle" fill="#EFEFEF" x="418.733" y="103.807" width="162.047" height="3.423"></rect>
            <rect id="Rectangle" fill="#EFEFEF" x="418.733" y="112.096" width="162.047" height="3.423"></rect>
            <rect id="Rectangle" fill="#EFEFEF" x="418.733" y="120.385" width="162.047" height="3.423"></rect>
            <rect id="Rectangle" fill="#EFEFEF" x="418.733" y="128.674" width="162.047" height="3.423"></rect>
            <rect id="Rectangle" fill="#EFEFEF" x="441.856" y="136.962" width="138.925" height="3.423"></rect>
            <path d="M635.652,3.382 C635.652,5.25037931 634.137379,6.765 632.269,6.765 L180.854,6.765 C179.956865,6.765 179.096488,6.40854594 178.462211,5.77408161 C177.827934,5.13961728 177.471998,4.27913542 177.471998,3.382 L177.471998,3.382 C177.471998,2.48434498 177.826786,1.62309208 178.46115,0.987978661 C179.095513,0.352865239 179.956344,-0.004 180.854,-0.004 L632.269,-0.004 C634.137379,-0.004 635.652,1.51062069 635.652,3.379 L635.652,3.379 L635.652,3.382 Z" id="Path" fill="#66341B"></path>
            <path d="M635.652,267.096 C635.652,268.964379 634.137379,270.479 632.269,270.479 L180.854,270.479 C179.956865,270.479 179.096488,270.122546 178.462211,269.488082 C177.827934,268.853617 177.472,267.993135 177.472,267.096 L177.472,267.096 C177.472,266.198865 177.827934,265.338383 178.462211,264.703918 C179.096488,264.069454 179.956865,263.713 180.854,263.713 L632.269,263.713 C634.137379,263.713 635.652,265.227621 635.652,267.096 L635.652,267.096 Z" id="Path" fill="#66341B"></path>
            <path d="M112.059,564.842 L114.509,433.874 L105.797,433.874 L108.246,564.842 C108.061928,565.628639 108.379896,566.447568 109.046575,566.903883 C109.713254,567.360197 110.591746,567.360197 111.258425,566.903883 C111.925104,566.447568 112.243072,565.628639 112.059,564.842 L112.059,564.842 Z" id="Path" fill="#723E24"></path>
            <path d="M31.99,549.522 L82.589,428.696 L74.489,425.481 L28.445,548.115 C27.9180606,549.174698 28.3055358,550.461465 29.33,551.054 C30.482055,551.325544 31.6467374,550.654756 31.99,549.522 L31.99,549.522 Z" id="Path" fill="#723E24"></path>
            <path d="M188.309,549.522 L137.709,428.696 L145.809,425.481 L191.855,548.113 C192.313718,548.776277 192.318845,549.65296 191.867917,550.321557 C191.416988,550.990155 190.602252,551.313889 189.815417,551.137116 C189.028581,550.960343 188.430612,550.319226 188.309,549.522 Z" id="Path" fill="#723E24"></path>
            <g id="Group" opacity="0.3" style="mix-blend-mode: multiply;" transform="translate(30.000000, 425.000000)" fill="#000000">
                <path d="M43.085,4.228 L48.237,6.273 L0.677,125.955 C1.27305838,125.650693 1.73928047,125.141506 1.99,124.521 L52.589,3.696 L44.489,0.481 L43.085,4.228 Z" id="Path"></path>
                <path d="M75.859,12.321 L82.351,12.321 L79.922,142.221 C79.9973951,142.237184 80.0739803,142.247217 80.151,142.251 C81.323856,142.0787 82.1598886,141.023143 82.059,139.842 L84.509,8.874 L75.797,8.874 L75.859,12.321 Z" id="Path"></path>
                <path d="M161.853,123.115 L115.807,0.483 L107.707,3.698 L108.637,5.92 L113.648,3.931 L159.429,125.859 C159.880658,126.164565 160.450154,126.238718 160.965,126.059 C161.993358,125.467224 162.382616,124.176709 161.853,123.115 Z" id="Path"></path>
            </g>
            <path d="M170.18,440.062 C161.344,447.252 148.25,453.869 114.994,454.524 C71.247,455.386 48.345,450.424 35.915,427.86 C15.159,390.181 41.133,268.453 82.107,295.419 C116.359,317.961 123.22,389.919 127.747,399.869 C132.274,409.819 191.622,422.615 170.18,440.062 Z" id="Path" fill="#E8F6F7"></path>
            <path d="M122.577,445.204 C78.83,446.066 55.929,441.104 43.498,418.54 C29.329,392.822 36.934,327.949 56.22,297.928 C31.537,320.807 20.013,398.996 35.916,427.859 C48.346,450.42 71.247,455.385 114.995,454.523 C148.251,453.868 161.345,447.251 170.181,440.061 C173.19,437.613 174.607,435.261 174.809,432.986 C165.942,439.258 152.332,444.618 122.577,445.204 Z" id="Path" fill="#D0E0E2"></path>
            <path d="M141.239,157.196 C144.228,148.572 146.988,139.508 151.676,144.086 C156.608,148.905 156.213,148.323 154.422,155.009 C152.631,161.695 138.724,164.45 141.239,157.196 Z" id="Path" fill="#FFE1BD"></path>
            <path d="M146.593,144.868 C148.079,140.763 150.518,136.074 153.026,134.136 C155.534,132.198 151.734,138.991 150.836,142.171 C149.938,145.351 145.344,148.321 146.593,144.868 Z" id="Path" fill="#FFE1BD"></path>
            <path d="M142.559,191.612 C146.073,178.426 147.829,161.192 147.829,161.192 L141.246,156.76 C141.246,156.76 127.846,184.303 120.605,205.212 L83.259,195.623 L78.707,194.695 L90.859,218.977 C90.859,218.977 126.828,224.214 129.038,222.977 C131.248,221.74 138.981,205.036 142.559,191.612 Z" id="Path" fill="#F4F4F4"></path>
            <path d="M129.037,222.976 C126.827,224.213 90.858,218.976 90.858,218.976 L78.706,194.696 L83.257,195.624 C86.612,197.04 92.048,202.474 96.462,208.247 C99.649,212.415 101.405,213.898 106.22,215.704 C113.585,218.466 121.411,220.425 124.352,220.635 C129.323,220.966 129.809,221.209 130.87,219.751 C131.012966,221.107672 130.275785,222.404676 129.037,222.976 Z" id="Path" fill="#EAEAEA"></path>
            <path d="M41.107,268.01 C43.4572556,274.050178 43.9704042,280.65014 42.582,286.981 C39.788,299.555 42.968,300.399 42.968,300.399 C42.968,300.399 60.01,311.216 74.184,315.637 C84.342,318.798 93,318.263 92.759,307.048 L92.751,306.894 C92.733,306.213 92.717,305.562 92.701,304.927 C92.222,279.72 97.478,278.438 98.774,250.212 C100.111,221.256 92.374,205.105 84.706,198.1 C77.027,191.111 66.547,190.851 46.833,195.511 C32.024,199 27.146,202.93 27.266,213.888 C27.4403038,218.419318 27.9729669,222.929734 28.859,227.377 C31.305,241.167 37.143,257.722 41.107,268.01 Z" id="Path" fill="#F4F4F4"></path>
            <path d="M76.871,205.996 C76.871,205.996 92.232,256.35 89.159,280.471 L83.5,290.771 L77.313,279.543 C77.313,279.543 82.344,231.318 72.713,206.85 L76.871,205.996 Z" id="Path" fill="#3A3A3A"></path>
            <path d="M41.107,268.01 C43.4572556,274.050178 43.9704042,280.65014 42.582,286.981 C39.788,299.555 42.968,300.399 42.968,300.399 C42.968,300.399 60.01,311.216 74.184,315.637 L87.428,314.381 L92.728,310.215 L92.749,306.893 C92.731,306.212 92.715,305.561 92.699,304.926 C86.0319958,305.434247 79.3305001,305.259673 72.699,304.405 C65.986239,303.572494 59.4004038,301.922593 53.088,299.492 C49.6452113,298.190964 47.6185773,294.621028 48.266,290.998 C49.3489328,285.195821 49.9622535,279.315767 50.1,273.415 C50.06,267.865 47.49,258.485 45.389,251.715 C43.8109977,246.52372 43.2124829,241.084188 43.624,235.674 C44.0082275,229.585562 44.0032173,223.478799 43.609,217.391 L33.109,211.704 L27.261,213.883 C27.4366892,218.416126 27.9710256,222.928225 28.859,227.377 C31.305,241.167 37.143,257.722 41.107,268.01 Z" id="Path" fill="#E2E2E2"></path>
            <path d="M40.89,321.505 C39.677,321.705 36.575,316.259 36.575,316.259 L37.875,314.532 C38.6100776,313.556231 39.6349596,312.837974 40.803,312.48 L41.014,312.415 C42.059904,312.085403 43.1985094,312.475887 43.822,313.378 C44.713,314.698 46.087,316.204 47.685,316.146 L47.713,316.146 C47.7662598,316.168796 47.8242343,316.178401 47.882,316.174 C49.295,316.203 42.103,321.307 40.89,321.505 Z" id="Path" fill="#F4D5B5"></path>
            <path d="M88.732,146.302 C88.732,146.302 90.047,149.976 88.059,152.896 L79.931,141.896 L85.6,141.844 L88.732,146.302 Z" id="Path" fill="#632F00"></path>
            <path d="M44.59,160.853 C44.949,175.043 57.19,183.267 57.19,183.267 L56.372,196.182 L64.629,201.534 L70.295,205.202 L73.547,198.407 L73.993,190.081 C74.1031077,188.142741 75.5005852,186.519731 77.401,186.123 C80.5213745,185.366662 83.3329212,183.667234 85.453,181.256 C85.640162,181.057296 85.8119879,180.844687 85.967,180.62 L85.986,180.609 C91.352,173.298 93.386,145.299 75.014,137.35 C56.046,129.12 44.22,146.643 44.59,160.853 Z" id="Path" fill="#FFE1BD"></path>
            <path d="M65.184,193.788 L64.628,201.534 L70.294,205.202 L73.546,198.407 L73.992,190.081 C74.1021077,188.142741 75.4995852,186.519731 77.4,186.123 C80.5203745,185.366662 83.3319212,183.667234 85.452,181.256 C85.639162,181.057296 85.8109879,180.844687 85.966,180.62 C82.3917932,182.570851 78.463329,183.786723 74.412,184.196 C69.4261596,184.751252 65.5460455,188.784418 65.184,193.788 Z" id="Path" fill="#E8C5A0"></path>
            <path d="M64.401,165.227 C63.683,165.521 63.001,164.411 63.001,164.411 C63.001,164.411 59.018,155.466 57.647,154.095 C55.198,151.614 49.42,151.843 48.964,159.514 C48.605,165.455 55.623,178.122 57.778,181.843 C58.1169194,182.449698 57.9647345,183.212742 57.419,183.643 C57.1853063,183.802283 56.916776,183.90311 56.636,183.937265 L56.536,183.937265 C56.201748,183.94358 55.8766411,183.827623 55.622,183.611 C51.085,179.628 31.106,160.466 46.971,142.446 C46.971,142.446 59.571,143.262 61.498,149.334 C62.8741036,154.043192 63.9759533,158.828225 64.798,163.665 C64.798,163.665 65.152,164.896 64.401,165.227 Z" id="Path" fill="#8C4200"></path>
            <path d="M88.732,146.302 C88.732,146.302 77.705,137.702 60.959,148.179 L47.246,144.679 C47.246,144.679 46.669,144.492 46.973,142.438 C47.277,140.384 48.792,120.223 72.812,124.755 C86.623,127.361 95.082,136.932 88.732,146.302 Z" id="Path" fill="#8C4200"></path>
            <path d="M77.934,201.71 L77.854,202.37 C77.7020728,203.619261 77.3710073,204.840128 76.871,205.995 L76.871,205.995 L72.713,206.846 L69.091,204.146 L73.245,199.316 L73.89,199.48 C75.3790288,199.859457 76.7491414,200.606229 77.875,201.652 L77.934,201.71 Z" id="Path" fill="#606060"></path>
            <path d="M56.471,190.163 C54.8608946,191.222685 53.5024029,192.622136 52.491,194.263 C54.2385553,195.05868 55.9411165,195.949687 57.591,196.932 C59.76,198.256 70.182,205.618 70.182,205.618 L73.247,199.324 C73.247,199.324 62.359,191.813 56.471,190.163 Z" id="Path" fill="#E2E2E2"></path>
            <path d="M73.245,199.319 C73.245,199.319 76.892,200.566 78.012,203.29 C78.012,203.29 79.877,199.716 77.494,193.355 C76.4336782,192.345832 75.2435234,191.482558 73.955,190.788 L73.245,199.319 Z" id="Path" fill="#E2E2E2"></path>
            <path d="M44.259,312.613 C45.0159486,313.599676 45.8563808,314.519401 46.771,315.362 C47.345,315.678 47.443,315.006 47.226,314.532 C47.009,314.058 44.347,311.969 44.259,312.613 Z" id="Path" fill="#E5BB98"></path>
            <path d="M56.632,183.932265 L56.532,183.932265 C56.197748,183.93858 55.8726411,183.822623 55.618,183.606 C51.081,179.623 31.102,160.461 46.967,142.441 C46.5166267,144.320549 46.362437,146.258887 46.51,148.186 C46.51,148.186 36.392,164.541 56.632,183.932265 Z" id="Path" fill="#632F00"></path>
            <ellipse id="Oval" fill="#D8D8D8" cx="66.459" cy="567.88" rx="65.844" ry="5.009"></ellipse>
            <path d="M33.928,548.766 C34.794,552.091 34.464,553.281 34.805,555.449 C35.23,558.137 37.699,559.115 39.13,561.322 C40.706,563.753 43.181,567.653 33.514,567.849 C23.165,568.056 17.034,567.341 18.789,561.49 C20.544,555.639 20.889,553.063 20.767,551.157 C20.645,549.251 20.772,547.262 21.941,546.117 C23.11,544.972 32.402,542.914 33.928,548.766 Z" id="Path" fill="#8C4200"></path>
            <path d="M36.114,362.779 C36.114,362.779 19.777,336.706 42.968,300.396 C42.968,300.396 61.042,308.487 75.515,309.463 C86.915,310.232 92.699,309.052 92.699,309.052 C92.699,309.052 93.659,343.961 93.699,362.777 L36.114,362.777 L36.114,362.779 Z" id="Path" fill="#3A3A3A"></path>
            <path d="M47.124,438.546 C51.593,419.7 33.045,416.381 27.189,430.016 C18.905,449.301 19.564,534.006 20.007,546.311 C20.064,547.922 20.907,547.62 21.807,547.294 C24.446,546.342 26.658,545.964 27.707,546.188 C29.8116961,546.841939 31.8511185,547.689913 33.799,548.721 C35.542,531.961 42.8,456.796 47.124,438.546 Z" id="Path" fill="#3A3A3A"></path>
            <path d="M63.802,365.321 C65.76,341.909 56.826,323.721 42.831,331.457 C36.94,334.71 34.784,341.22 33.994,347.349 C33.204,353.478 28.867,417.177 27.348,428.687 C23.924,454.636 43.67,447.643 45.812,440.453 C51.216,422.296 62.735,378.078 63.802,365.321 Z" id="Path" fill="#3A3A3A"></path>
            <path d="M96.771,437.33 C97.504,419.761 82.81,420.779 76.88,434.43 C64.071,463.922 76.973,526.713 79.603,556.33 C82.474,551.563 87.916,549.948 89.194,550.049 C90.4654606,550.175067 91.6260095,550.827875 92.394,551.849 C91.973,515.516 95.985,456.115 96.771,437.33 Z" id="Path" fill="#3A3A3A"></path>
            <path d="M77.539,439.236 C79.729,446.409 98.597,454.711 96.626,428.599 C95.752,417.018 93.426,353.064 92.973,346.899 C92.52,340.734 91.493,331.723 88.513,330.599 C73.613,324.975 59.165,343.365 63.086,366.514 C65.703,381.99 72.995,424.358 77.539,439.236 Z" id="Path" fill="#3A3A3A"></path>
            <path d="M92.34,552.378 C93.122,553.899 96.864,557.415 102.051,559.733 C107.238,562.051 118.223,563.133 112.119,565.174 C106.015,567.215 98.897,565.974 95.289,565.4 C91.5290871,564.874995 87.733762,564.645958 83.938,564.715 C78.329,564.677 78.286,564.332 79.038,558.007 C80.083,549.303 89.817,547.46 92.34,552.378 Z" id="Path" fill="#8C4200"></path>
            <path d="M39.866,307.416 L42.745,311.473 C45.8587958,311.079464 48.8892356,312.66247 50.345,315.443 C52.782,320.215 44.161,326.191 41.71,323.987 C39.259,321.783 33.929,311.596 33.929,311.596 L39.866,307.416 Z" id="Path" fill="#FFE1BD"></path>
            <path d="M18.329,294.546 C24.0212681,300.520583 29.349212,306.831967 34.284,313.446 L35.77,312.446 L41.459,308.576 C41.459,308.576 29.789,284.136 26.473,272.203 C25.0528741,267.198626 22.7244783,262.498107 19.604,258.336 C19.826,258.123 20.033,257.912 20.254,257.684 C28.713,248.677 35.306,237.063 40.322,229.947 C42.7434476,226.523968 44.3821786,222.610132 45.122,218.483 C45.6155239,215.688123 45.642894,212.830818 45.203,210.027 C44.487,205.565 42.611,201.455 38.294,200.395 C36.7151371,200.008114 35.0541611,200.133134 33.551,200.752 C31.8663367,201.441115 30.443754,202.646967 29.488,204.196 C22.894,214.864 4.216,243.742 1.279,250.865 C0.792863372,252.033515 0.456850451,253.258954 0.279,254.512 C0.191196679,254.925009 0.124443884,255.342214 0.079,255.762 C-1.055,267.446 10.545,286.696 18.329,294.546 Z" id="Path" fill="#F4F4F4"></path>
            <path d="M18.329,294.546 C24.0212681,300.520583 29.349212,306.831967 34.284,313.446 L35.77,312.446 C35.77,312.446 27.207,300.515 23.16,295.682 C16.96,288.282 12.599,282.508 8.9,275.711 C5.201,268.914 3.459,255.811 5.419,252.132 C7.363,248.455 18.288,232.208 20.631,229.085 C22.975,225.977 42.148,206.847 36.644,201.516 C35.7705933,200.829716 34.6444048,200.551811 33.552,200.753 C31.8671108,201.441673 30.4441749,202.647177 29.488,204.196 C22.894,214.864 4.216,243.742 1.279,250.865 C0.792863372,252.033515 0.456850451,253.258954 0.279,254.512 C0.191196679,254.925009 0.124443884,255.342214 0.079,255.762 C-1.055,267.446 10.545,286.696 18.329,294.546 Z" id="Path" fill="#EAEAEA"></path>
            <path d="M48.883,311.696 C48.883,311.696 46.248,320.99 34.539,326.333 C24.439,330.942 50.712,333.578 51.298,332.553 C51.884,331.528 56.933,314.566 56.933,314.566 L48.883,311.696 Z" id="Path" fill="#3A3A3A"></path>
            <path d="M250.137,557.478 L252.601,425.705 L243.835,425.705 L246.299,557.478 C246.115441,558.268944 246.435965,559.091486 247.106286,559.549696 C247.776607,560.007905 248.659393,560.007905 249.329714,559.549696 C250.000035,559.091486 250.320559,558.268944 250.137,557.478 Z" id="Path" fill="#723E24"></path>
            <path d="M169.579,542.064 L220.489,420.496 L212.342,417.262 L166.013,540.648 C165.549287,541.315278 165.542859,542.198811 165.996813,542.872766 C166.450768,543.546721 167.271953,543.8728 168.064584,543.693844 C168.857216,543.514888 169.458644,542.86762 169.579,542.064 L169.579,542.064 Z" id="Path" fill="#723E24"></path>
            <path d="M326.859,542.064 L275.947,420.496 L284.095,417.262 L330.424,540.647 C330.888527,541.314077 330.895625,542.197979 330.441872,542.87243 C329.988118,543.546882 329.166697,543.873377 328.373749,543.694458 C327.580802,543.515539 326.979171,542.86795 326.859,542.064 L326.859,542.064 Z" id="Path" fill="#723E24"></path>
            <g id="Group" opacity="0.3" style="mix-blend-mode: multiply;" transform="translate(168.000000, 417.000000)" fill="#000000">
                <path d="M42.927,4.031 L48.111,6.089 L0.259,126.506 C0.85851217,126.199479 1.32749194,125.687187 1.58,125.063 L52.489,3.496 L44.342,0.262 L42.927,4.031 Z" id="Path"></path>
                <path d="M75.9,12.174 L82.432,12.174 L79.988,142.868 C80.0640628,142.884226 80.1413158,142.894259 80.219,142.898 C81.3967247,142.723784 82.2363622,141.664387 82.137,140.478 L84.601,8.705 L75.835,8.705 L75.9,12.174 Z" id="Path"></path>
                <path d="M162.424,123.648 L116.095,0.263 L107.947,3.497 L108.884,5.732 L113.925,3.732 L159.989,126.408 C160.443435,126.715131 161.016338,126.789293 161.534,126.608 C162.566561,126.011791 162.956536,124.714796 162.424,123.648 Z" id="Path"></path>
            </g>
            <path d="M312.033,380.616 C312.033,431.156 283.462,443.258 248.218,443.258 C212.974,443.258 184.403,431.158 184.403,380.616 C184.403,330.074 212.974,281.231 248.218,281.231 C283.462,281.231 312.033,330.076 312.033,380.616 Z" id="Path" fill="#E8F6F7"></path>
            <path d="M253.342,431.88 C218.098,431.88 189.528,419.78 189.528,369.238 C189.539064,352.248746 192.681563,335.40705 198.798,319.557 C189.798,337.011 184.404,358.657 184.404,380.617 C184.404,431.157 212.975,443.259 248.219,443.259 C275.851,443.259 299.378,435.817 308.253,408.247 C297.133,426.556 276.706,431.88 253.342,431.88 Z" id="Path" fill="#D0E0E2"></path>
            <path d="M217.625,367.375 C217.625,367.375 209.425,384.845 207.756,396.519 C205.318,413.563 208.92,420.946 230.696,421.626 C252.472,422.306 258.82,418.063 269.204,418.063 C279.588,418.063 291.657,398.377 278.285,375.002 L217.625,367.375 Z" id="Path" fill="#09424C"></path>
            <path d="M226.978,510.496 L226.578,517.107 C226.578,517.107 220.143,536.067 219.826,540.849 C219.273,549.186 222.954,558.519 226.532,558.466225 C230.611,558.406 236.232,553.178 238.738,542.731 C240.438,535.656 237.686,521.799 238.664,518.547 C239.642,515.295 241.615,508.991 241.615,508.991 L226.978,510.496 Z" id="Path" fill="#FFE1BD"></path>
            <path d="M239.25,538.669 C236.43,541.515 230.694,547.505 228.417,547.39 C226.054,547.271 221.917,540.01 220.54,537.006 C220.207265,538.266121 219.969268,539.549369 219.828,540.845 C219.275,549.182 222.956,558.515 226.534,558.462 C230.613,558.402 236.234,553.174 238.74,542.727 C239.032239,541.392517 239.202937,540.034296 239.25,538.669 L239.25,538.669 Z" id="Path" fill="#8C4200"></path>
            <path d="M241.294,513.714 C241.294,513.714 267.312,431.564 270.56,421.457 C273.808,411.35 276.428,392.132 261.368,388.78 C248.361,385.885 242.905,405.28 240.526,417.228 C238.147,429.176 226.164,508.912 226.164,508.912 C226.164,508.912 224.75,513.396 232.516,514.679 C240.282,515.962 241.294,513.714 241.294,513.714 Z" id="Path" fill="#0C5A71"></path>
            <g id="Group" opacity="0.1" style="mix-blend-mode: multiply;" transform="translate(226.000000, 388.000000)" fill="#000000">
                <path d="M30.795,0.696 C25.145,8.42 22.279,22.83 20.68,30.853 C18.301,42.797 6.439,124.167 6.439,124.167 C6.439,124.167 8.439,125.192 12.766,127.127 C12.0776249,127.077722 11.3866929,127.075383 10.698,127.12 C2.325,127.72 0.285,122.545 0.285,122.545 C0.285,122.545 12.147,41.174 14.526,29.231 C16.605,18.796 21.034,2.667 30.795,0.696 Z" id="Path"></path>
            </g>
            <path d="M194.352,507.332 L193.486,513.898 C193.486,513.898 185.719,532.352 185.059,537.096 C183.915,545.373 186.922,554.944 190.495,555.146 C194.568,555.376 200.547,550.561 203.789,540.319 C205.989,533.382 204.228,519.365 205.436,516.19 C206.644,513.015 209.059,506.872 209.059,506.872 L194.352,507.332 Z" id="Path" fill="#FFE1BD"></path>
            <path d="M204.589,536.31 C201.574,538.948 195.426,544.515 193.164,544.239 C190.816,543.952 187.201,536.415 186.045,533.321 C185.622652,534.552984 185.293065,535.814838 185.059,537.096 C183.915,545.373 186.922,554.944 190.495,555.146 C194.568,555.376 200.547,550.561 203.789,540.319 C204.17623,539.009578 204.443992,537.667757 204.589,536.31 Z" id="Path" fill="#8C4200"></path>
            <path d="M208.403,511.563 C208.403,511.563 240.197,431.471 244.156,421.621 C248.115,411.771 252.095,392.788 237.311,388.373 C224.543,384.56 217.721,403.522 214.499,415.267 C211.277,427.012 193.653,505.697 193.653,505.697 C193.653,505.697 191.923,510.069 199.579,511.897 C207.235,513.725 208.403,511.563 208.403,511.563 Z" id="Path" fill="#0C5A71"></path>
            <g id="Group" opacity="0.1" style="mix-blend-mode: multiply;" transform="translate(193.000000, 387.000000)" fill="#000000">
                <path d="M39.759,0.96 C33.574,8.26 29.691,22.432 27.525,30.322 C24.302,42.066 6.684,122.387 6.684,122.387 C6.684,122.387 8.605,123.551 12.784,125.787 C12.1009447,125.689053 11.4120268,125.637601 10.722,125.633 C2.327,125.633 0.66,120.333 0.66,120.333 C0.66,120.333 18.278,40.012 21.501,28.268 C24.315,18.006 29.879,2.236 39.759,0.96 Z" id="Path"></path>
            </g>
            <path d="M231.654,201.271 C231.654,201.271 234.535,188.895 255.163,192.871 C274.853,196.665 273.611,224.133 275.902,231.604 C277.92787,237.584303 280.27836,243.449678 282.943,249.174 C283.120648,249.560675 283.125702,250.004606 282.956904,250.395226 C282.788106,250.785845 282.461343,251.086388 282.058,251.222 C274.781,253.641 243.889,262.703 222.82,250.064 C220.941137,248.975804 219.467035,247.306208 218.62,245.307 C218.223771,244.379239 218.030124,243.377593 218.052,242.369 C218.195,239.076 220.052,235.069 218.625,225.469 C217.198,215.869 218.909,200.984 231.654,201.271 Z" id="_Path_" fill="#0B0B3A"></path>
            <path d="M225.592,227.81 C223.874175,230.357222 223.27095,233.495434 223.922,236.498 C224.21894,239.476329 226.720915,241.7472 229.714,241.755 L230.366,236.355 L228.934,226.855 L225.592,227.81 Z" id="_Path_2" fill="#FFE1BD"></path>
            <path d="M271.659,227.81 C273.377171,230.357075 273.980759,233.495298 273.33,236.498 C273.033021,239.476709 270.530468,241.747712 267.537,241.755 L266.886,236.355 L268.318,226.855 L271.659,227.81 Z" id="_Path_3" fill="#FFE1BD"></path>
            <path d="M275.002,332.917 C274.657543,337.839587 274.776399,342.783651 275.357,347.684 C275.957,353.962 278.057,376.96 278.057,376.96 C273.822905,378.509818 269.460323,379.683034 265.02,380.466 C253.965,382.574 234.926,376.914 217.262,370.911 C217.262,370.911 223.747,354.982 223.839,341.876 C223.862,340.089 223.827,338.245 223.724,336.354 C223.305795,332.298692 222.674926,328.268143 221.834,324.279 C221.650667,323.282333 221.467333,322.251333 221.284,321.186 C220.62,317.348 219.955,313.133 219.484,308.837 C218.982484,304.564176 218.768336,300.262508 218.843,295.961 C217.243,284.436 220.768,273.095 220.768,273.095 C220.768,273.095 235.328,267.012 241.48,266.187 C241.48,266.187 252.386,263.687 260.05,266.233 C270.074,269.555 275.561,271.491 280.063,273.954 C280.544,274.218 283.463,282.764 282.183,290.29 C280.304,301.322 277.532,316.455 276.043,325.551 C275.448,329.183 275.059,331.853 275.002,332.917 Z" id="_Path_4" fill="#77329C"></path>
            <path d="M278.059,379.655 C273.697125,379.280316 269.303809,379.553613 265.022,380.466 C261.952,372.55 262.917,343.802 262.917,343.802 C254.325,342.37 241.254,337.215 241.254,337.215 C237.817,338.842 227.186,341.167 223.841,341.878 C223.864,340.091 223.829,338.247 223.726,336.356 C223.307795,332.300692 222.676926,328.270143 221.836,324.281 C225.857,321.474 233.326,327.672 233.326,327.672 L271.039,321.75 C272.834964,322.839589 274.512666,324.113114 276.045,325.55 C275.445,329.182 275.06,331.85 275.002,332.916 C274.657543,337.838587 274.776399,342.782651 275.357,347.683 C275.952,353.962 278.059,379.655 278.059,379.655 Z" id="_Path_5" fill="#2706CE" opacity="0.39"></path>
            <path d="M270.029,221.601 C270.029,227.134 268.918,240.001 265.447,248.522 C263.54615,253.365911 260.120235,257.459458 255.687,260.184 C255.641,262.395 255.595,265.305 257.142,265.546 C257.589,266.531 258.15,266.783 257.852,268.33 C256.809,273.83 250.406,279.912 248.836,281.435 C247.266,282.958 246.281,281.435 246.281,281.435 C244.455025,279.325483 242.886038,277.006578 241.607,274.527 C240.816,273.038 240.198,271.686 239.807,270.735 C239.229648,269.292684 239.392003,267.659429 240.242,266.359 C241.942,266.153 241.319,262.51 241.181,260.559 C237.905,258.222 234.812,254.224 232.509,249.527 C227.892,240.099 227.64,228.116 227.64,221.598 C227.640536,214.025934 231.68068,207.029343 238.238549,203.243774 C244.796418,199.458205 252.875716,199.458777 259.433049,203.245274 C265.990382,207.031771 270.029536,214.028934 270.029,221.601 Z" id="_Path_6" fill="#FFE1BD"></path>
            <path d="M255.4,260.288 C254.152,260.746 249.053,262.728 248.069,264.87 C246.958,267.333 246.328,271.319 245.285,272.442 C244.188297,273.343197 242.944406,274.048531 241.608,274.527 C240.817,273.038 240.199,271.686 239.808,270.735 C239.230648,269.292684 239.393003,267.659429 240.243,266.359 C241.943,266.153 241.32,262.51 241.182,260.559 C243.312633,261.405497 245.589671,261.822161 247.882,261.785 C250.430584,261.530763 252.948422,261.029406 255.4,260.288 Z" id="_Path_7" fill="#E8C5A0"></path>
            <path d="M263.146,316.342 C264.613185,316.048684 266.09495,315.833713 267.585,315.698 C268.659,315.698 265.585,325.328 265.585,325.328 C264.922668,324.640185 264.078573,324.154674 263.151,323.928 C261.827,323.713 262.328,316.446 262.328,316.446 L263.146,316.342 Z" id="_Path_8" fill="#FFE1BD"></path>
            <path d="M280.069,273.951 C280.069,273.951 289.653,278.877 289.08,286.324 C288.507,293.771 277.29,334.445 275.359,339.796 C273.428,345.147 224.546,328.913 224.546,328.913 C224.546,328.913 226.074,322.376 227.41,320.584 C227.41,320.584 260.823,324.14 265.21,325.858 C265.21,325.858 271.988,293.59 274.088,287.863 C276.188,282.136 280.069,273.951 280.069,273.951 Z" id="_Path_9" fill="#5E388E"></path>
            <path d="M263.821,324.612 C258.746,327.476 220.151,343.512 216.577,342.517 C213.003,341.522 208.695,338.359 208.122,328.908 C207.622,320.522 212.475,287.472 213.609,279.82 C213.783543,278.609797 214.282534,277.469442 215.053,276.52 C215.286596,276.268685 215.535041,276.031594 215.797,275.81 C217.316126,274.672131 218.990479,273.757838 220.769,273.095 C221.25,274.183 221.124,278.651 221.72,286.495 C221.789121,287.384673 221.731206,288.279655 221.548,289.153 C220.586,293.724 219.417,299.681 219.486,302.843 C219.48685,303.034507 219.498536,303.225813 219.521,303.416 C219.853,306.738 222.321,313.039 222.362,315.697 C222.442,321.975 222.419,322.857 222.408,322.96 C223.794,322.731 228.608,321.872 234.483,320.829 C246.615,318.652 263.249,315.662 263.249,315.662 C264.691,318.735 263.821,324.612 263.821,324.612 Z" id="_Path_10" fill="#7F649C"></path>
            <path d="M223.348,229.91 C223.348,229.91 230.053,228.778 233.922,223.752 C235.944596,220.89346 237.527187,217.74783 238.617,214.42 C238.617,214.42 240.961,219.456 248.837,223.036 C256.561827,226.586474 264.794811,228.905881 273.237,229.91 C273.237,229.91 273.758,211.58 267.744,204.134 C261.73,196.688 246.121,192.392 235.524,198.834 C224.927,205.276 223.348,229.91 223.348,229.91 Z" id="_Path_11" fill="#0B0B3A"></path>
            <path d="M240.312,266.224 C240.312,266.224 241.412,276.104 246.281,281.438 C246.281,281.438 244.666,280.905 241.667,284.517 C241.478916,284.742806 241.179295,284.842803 240.893294,284.775222 C240.607293,284.707641 240.38412,284.484109 240.317,284.198 C239.386,280.181 236.335,270.346 238.032,266.926 C238.615089,266.306402 239.481387,266.039674 240.312,266.224 Z" id="_Path_12" fill="#8556C2"></path>
            <path d="M256.992,265.496 C256.196052,268.38073 255.202025,271.207107 254.017,273.955 C252.625697,276.791241 250.795142,279.389927 248.593,281.655 C248.593,281.655 252.344,282.35 254.079,284.82 C254.20945,285.002792 254.429659,285.099293 254.652475,285.07131 C254.875292,285.043328 255.0648,284.895372 255.146,284.686 C256.273,282.513 256.916,280.545 258.171,276.07 C259.6,270.97 259.658,268.17 259.491,266.061 C258.869936,265.348535 257.859154,265.120007 256.992,265.496 Z" id="_Path_13" fill="#8556C2"></path>
            <path d="M219.67,325.609 C215.76,322.274 220.426,315.909 220.094,313.683 C219.762,311.457 219.773,311.083 219.487,308.838 C219.235386,307.039556 219.247177,305.214044 219.522,303.419 C219.854,306.741 222.322,313.042 222.363,315.7 C222.443,321.978 222.42,322.86 222.409,322.963 C223.795,322.734 236.739,320.415 242.616,319.372 C243.989,320.096 222.302,327.854 219.67,325.609 Z" id="_Path_14" fill="#3706CE" opacity="0.39"></path>
            <path d="M226.551,322.241 L222.413,322.968 C219.835458,322.744295 217.24702,322.671837 214.661,322.751 C212.640095,322.928948 210.648598,323.353778 208.731,324.016 C208.508749,324.067279 208.275178,324.022837 208.087289,323.893521 C207.8994,323.764204 207.774475,323.561908 207.743,323.336 C207.32067,321.965695 207.151243,320.529971 207.243,319.099 C207.413353,317.693918 207.776431,316.318997 208.322,315.013 C208.51015,314.585541 208.868893,314.256542 209.311,314.106 C210.848,313.564 212.678,313.622 215.357,313.85 C217.761407,313.8991 220.008035,315.057114 221.443,316.987 L223.143,319.01 C223.6957,319.655673 224.4469,320.099851 225.279,320.273 L227.325,320.699 C227.325,320.699 227.098,321.063 226.905,321.442 C226.770801,321.700858 226.65258,321.96769 226.551,322.241 Z" id="_Path_15" fill="#FFE1BD"></path>
            <polygon id="Path" fill="#FAFEFF" points="143.499 362.455 145.416 325.432 127.294 325.432 129.21 362.455"></polygon>
            <polygon id="Path" fill="#B4EFF9" points="130.836 360.716 129.154 327.171 143.556 327.171 141.873 360.716"></polygon>
            <polygon id="Path" fill="#75D9EF" points="129.706 335.375 130.836 360.716 141.873 360.716 143.004 335.375"></polygon>
            <g id="Group" opacity="0.5" transform="translate(130.000000, 328.000000)" fill="#FFFFFF">
                <path d="M2.001,29.096 L5.013,29.096 L3.233,2.666 C2.868,-0.528 -0.117,-0.702 0.353,2.939 L2.001,29.096 Z" id="Path"></path>
            </g>
            <rect id="Rectangle" fill="#282C2D" x="85.266" y="367.519" width="83.964" height="5.258"></rect>
            <rect id="Rectangle" fill="#D6D6D6" x="86.08" y="362.294" width="76.057" height="4.218"></rect>
            <rect id="Rectangle" fill="#525252" x="82.127" y="365.507" width="83.964" height="2.013"></rect>
            <rect id="Rectangle" fill="#A5A5AF" x="87.642" y="363.912" width="72.933" height="1"></rect>
            <rect id="Rectangle" fill="#A5A5AF" x="87.642" y="364.855" width="72.933" height="1"></rect>
            <rect id="Rectangle" fill="#A5A5AF" x="87.642" y="362.926" width="72.933" height="1"></rect>
            <rect id="Rectangle" fill="#F1F2F2" x="464.303" y="363.184" width="34.675" height="8.604"></rect>
            <rect id="Rectangle" fill="#A7A9AC" x="488.036" y="363.184" width="10.943" height="8.604"></rect>
            <rect id="Rectangle" fill="#A7A9AC" x="462.162" y="363.184" width="34.675" height="1"></rect>
            <rect id="Rectangle" fill="#A7A9AC" x="462.162" y="370.8" width="34.675" height="1"></rect>
            <rect id="Rectangle" fill="#383838" x="488.977" y="363.184" width="45.249" height="8.604"></rect>
            <rect id="Rectangle" fill="#A7A9AC" x="493.841" y="365.185" width="24.208" height="4.603"></rect>
            <rect id="Rectangle" fill="#E6E7E8" x="495.145" y="365.432" width="21.6" height="4.107"></rect>
            <ellipse id="Oval" fill="#A7A9AC" cx="527.912" cy="367.49" rx="2.828" ry="2.305"></ellipse>
            <rect id="Rectangle" fill="#A7A9AC" x="466.366" y="364.75" width="19.776" height="1"></rect>
            <rect id="Rectangle" fill="#A7A9AC" x="466.366" y="368.1" width="19.776" height="1"></rect>
            <rect id="Rectangle" fill="#A7A9AC" x="466.366" y="369.353" width="19.776" height="1"></rect>
            <rect id="Rectangle" fill="#A7A9AC" x="472.566" y="366.674" width="12.322" height="1"></rect>
            <rect id="Rectangle" fill="#A7A9AC" x="466.366" y="366.674" width="5.21" height="1"></rect>
            <rect id="Rectangle" fill="#F1F2F2" x="457.774" y="354.784" width="34.675" height="8.604"></rect>
            <rect id="Rectangle" fill="#A7A9AC" x="481.506" y="354.784" width="10.943" height="8.604"></rect>
            <rect id="Rectangle" fill="#A7A9AC" x="455.633" y="354.784" width="34.675" height="1"></rect>
            <rect id="Rectangle" fill="#A7A9AC" x="455.633" y="362.4" width="34.675" height="1"></rect>
            <rect id="Rectangle" fill="#58595B" x="482.448" y="354.784" width="45.249" height="8.604"></rect>
            <rect id="Rectangle" fill="#A7A9AC" x="487.312" y="356.785" width="24.208" height="4.603"></rect>
            <rect id="Rectangle" fill="#E6E7E8" x="488.616" y="357.033" width="21.6" height="4.107"></rect>
            <ellipse id="Oval" fill="#A7A9AC" cx="521.383" cy="359.091" rx="2.828" ry="2.305"></ellipse>
            <rect id="Rectangle" fill="#A7A9AC" x="459.838" y="356.35" width="19.776" height="1"></rect>
            <rect id="Rectangle" fill="#A7A9AC" x="459.838" y="359.7" width="19.776" height="1"></rect>
            <rect id="Rectangle" fill="#A7A9AC" x="459.838" y="360.954" width="19.776" height="1"></rect>
            <rect id="Rectangle" fill="#A7A9AC" x="466.036" y="358.275" width="12.322" height="1"></rect>
            <rect id="Rectangle" fill="#A7A9AC" x="459.838" y="358.275" width="5.21" height="1"></rect>
            <rect id="Rectangle" fill="#F1F2F2" x="464.303" y="346.385" width="34.675" height="8.604"></rect>
            <rect id="Rectangle" fill="#A7A9AC" x="488.036" y="346.385" width="10.943" height="8.604"></rect>
            <rect id="Rectangle" fill="#A7A9AC" x="462.162" y="346.385" width="34.675" height="1"></rect>
            <rect id="Rectangle" fill="#A7A9AC" x="462.162" y="354.001" width="34.675" height="1"></rect>
            <rect id="Rectangle" fill="#594A42" x="488.977" y="346.385" width="45.249" height="8.604"></rect>
            <rect id="Rectangle" fill="#A7A9AC" x="493.841" y="348.386" width="24.208" height="4.603"></rect>
            <rect id="Rectangle" fill="#E6E7E8" x="495.145" y="348.634" width="21.6" height="4.107"></rect>
            <ellipse id="Oval" fill="#A7A9AC" cx="527.912" cy="350.691" rx="2.828" ry="2.306"></ellipse>
            <rect id="Rectangle" fill="#A7A9AC" x="466.366" y="347.952" width="19.776" height="1"></rect>
            <rect id="Rectangle" fill="#A7A9AC" x="466.366" y="351.301" width="19.776" height="1"></rect>
            <rect id="Rectangle" fill="#A7A9AC" x="466.366" y="352.554" width="19.776" height="1"></rect>
            <rect id="Rectangle" fill="#A7A9AC" x="472.566" y="349.875" width="12.322" height="1"></rect>
            <rect id="Rectangle" fill="#A7A9AC" x="466.366" y="349.875" width="5.21" height="1"></rect>
            <polygon id="Path" fill="#FAFEFF" points="537.221 371.557 539.138 343.076 521.016 343.076 522.932 371.557"></polygon>
            <polygon id="Path" fill="#B4EFF9" points="524.558 369.818 522.875 344.815 537.278 344.815 535.595 369.818"></polygon>
            <polygon id="Path" fill="#75D9EF" points="523.427 353.02 524.558 369.818 535.595 369.818 536.726 353.02"></polygon>
            <g id="Group" opacity="0.5" transform="translate(524.000000, 345.000000)" fill="#FFFFFF">
                <path d="M1.722,21.196 L4.734,21.196 L2.954,3.308 C2.589,0.114 -0.397,-0.06 0.074,3.582 L1.722,21.196 Z" id="Path"></path>
            </g>
            <path d="M171.236,342.626 C172.006301,348.973726 176.199763,354.385895 182.154,356.717 C182.197951,356.729772 182.244488,356.707523 182.262146,356.665298 C182.279804,356.623072 182.262959,356.574318 182.223,356.552 C176.464,353.84 172.195,349.097 171.389,342.625 C171.377,342.525 171.224,342.525 171.236,342.625 L171.236,342.625 L171.236,342.626 Z" id="Path" fill="#81553A"></path>
            <path d="M181.65,333.066 C185.031479,340.791257 183.488434,349.788025 177.726,355.945 C177.688997,355.982003 177.688997,356.041997 177.726,356.079 C177.763003,356.116003 177.822997,356.116003 177.86,356.079 C183.800706,349.928588 185.353693,340.760807 181.77,332.997 C181.734,332.915 181.615,332.986 181.65,333.067 L181.65,333.067 L181.65,333.066 Z" id="Path" fill="#81553A"></path>
            <path d="M198.29,336.636 C201.39,340.577 199.65,345.118 197.69,349.136 C195.959,352.682 192.435,354.349 189.001,355.844 C188.944253,355.875796 188.920704,355.945329 188.946452,356.005064 C188.972199,356.064799 189.038919,356.095423 189.101,356.076 C193.506,354.512 196.81,352.062 198.629,347.714 C200.253,343.834 201.284,340.042 198.441,336.491 C198.356,336.385 198.211,336.535 198.293,336.639 L198.293,336.639 L198.29,336.636 Z" id="Path" fill="#81553A"></path>
            <path d="M196.495,349.196 C199.436842,349.657608 202.391902,348.448929 204.167,346.058 C204.181659,346.017104 204.168236,345.971423 204.133785,345.944957 C204.099334,345.918491 204.051736,345.917296 204.016,345.942 C202.163669,348.128314 199.372511,349.289808 196.516,349.063 C196.482699,349.063926 196.454972,349.088841 196.450504,349.121854 C196.446036,349.154867 196.466143,349.186256 196.498,349.196 L196.498,349.196 L196.495,349.196 Z" id="Path" fill="#81553A"></path>
            <path d="M188.47,334.407 C187.988,338.657 186.824,345.972 182.524,348.068 C182.4801,348.093089 182.461835,348.146999 182.481445,348.193605 C182.501055,348.240211 182.552369,348.264845 182.601,348.251 C187.139,346.566 188.23,338.451 188.63,334.407 C188.64,334.307 188.482,334.307 188.471,334.407 L188.471,334.407 L188.47,334.407 Z" id="Path" fill="#81553A"></path>
            <path d="M163.414998,340.378 C164.065753,345.320891 168.382878,348.948943 173.364,348.739 C173.399899,348.739 173.429,348.709899 173.429,348.674 C173.429,348.638101 173.399899,348.609 173.364,348.609 C168.502384,348.649228 164.337671,345.13837 163.555,340.34 C163.539,340.248 163.402,340.288 163.416,340.378 L163.416,340.378 L163.414998,340.378 Z" id="Path" fill="#81553A"></path>
            <path d="M203.527,351.884 L167.58,351.884 C167.58,351.884 164.665,358.904 164.665,360.639 C164.665,362.374 168.636,365.925 172.911,365.925 L198.196,365.925 C202.471,365.925 206.442,362.373 206.442,360.639 C206.442,358.905 203.527,351.884 203.527,351.884 Z" id="Path" fill="#FFD04D"></path>
            <polygon id="Path" fill="#EFAF11" points="199.705 367.731 171.401 367.731 172.391 365.925 198.716 365.925"></polygon>
            <path d="M175.592,360.639 C175.592,358.905 178.506,351.884 178.506,351.884 L167.58,351.884 C167.58,351.884 164.665,358.904 164.665,360.639 C164.665,362.374 168.636,365.925 172.911,365.925 L183.838,365.925 C179.559,365.925 175.592,362.373 175.592,360.639 Z" id="Path" fill="#EFAF11"></path>
            <polygon id="Path" fill="#EFAF11" opacity="0.55" style="mix-blend-mode: multiply;" points="172.391 365.925 171.402 367.731 182.329 367.731 183.318 365.925"></polygon>
            <path d="M184.209,338.818 C185.026,338.179 188.247,337.037 190.398,338.395 C192.979332,339.942652 194.647236,342.648521 194.87,345.65 C192.922749,346.098701 190.924993,346.289668 188.928,346.218 C182.199,345.69 182.693,340.003 184.209,338.818 Z" id="Path" fill="#709E3E"></path>
            <path d="M200.59,335.237 C201.133,334.771 203.316,333.881 204.842,334.748 C206.670371,335.732015 207.906085,337.543625 208.155,339.605 C206.827632,339.976295 205.457245,340.171632 204.079,340.186 C199.425,340.037 199.583,336.103 200.59,335.237 Z" id="Path" fill="#709E3E"></path>
            <path d="M199.114,332.916 C198.166486,332.477773 197.059921,332.559432 196.187,333.132 C195.082351,334.042064 194.486219,335.430306 194.587,336.858 C195.528994,336.939008 196.477567,336.894958 197.408,336.727 C200.52,336.025 199.904,333.373 199.114,332.916 Z" id="Path" fill="#709E3E"></path>
            <path d="M167.146,336.256 C166.435453,335.922601 165.643468,335.802414 164.866,335.91 C163.968225,336.07892 163.191317,336.63668 162.744183,337.433301 C162.297048,338.229922 162.225582,339.183638 162.549,340.038 C163.037636,340.895928 163.945717,341.429198 164.933,341.438 C166.77,341.669 168.971,340.231 170.801,339.638 C169.983329,338.142832 168.700022,336.955377 167.146,336.256 Z" id="Path" fill="#709E3E"></path>
            <path d="M171.92,340.99 C171.146702,341.384477 170.638043,342.156774 170.581,343.023 C170.791338,344.091204 171.741665,344.851804 172.83,344.823 C173.883,344.873 177.643,343.845 179.246,344.668 C176.459,339.385 173.64,339.902 171.92,340.99 Z" id="Path" fill="#709E3E"></path>
            <path d="M203.62,342.832 C202.953881,343.092378 202.458439,343.663725 202.295,344.36 C202.215637,345.227108 202.787277,346.020152 203.635,346.219 C204.397,346.419 207.324,346.094 208.357001,347.027 C208.359,343.022 205.064,342.16 203.62,342.832 Z" id="Path" fill="#709E3E"></path>
            <path d="M183.623,347.996 C184.48,347.749 187.723,347.467 189.064,349.204 C191.514,352.372 189.408,355.104 189.136,356.07 C187.413272,355.814507 185.729863,355.341741 184.126,354.663 C178.805,352.151 180.708,348.442 183.623,347.996 Z" id="Path" fill="#709E3E"></path>
            <path d="M171.881,348.562 C171.1,348.3 168.458,348.338 167.364,350.016 C166.023055,352.072064 165.702577,354.630727 166.495,356.954 C168.010623,356.744133 169.488123,356.317082 170.882,355.686 C175.48,353.335 173.329,349.049 171.881,348.562 Z" id="Path" fill="#709E3E"></path>
            <path d="M180.45,332.74 C181.270423,332.866315 181.97513,333.390539 182.332,334.14 C182.626441,335.108295 182.164564,336.145814 181.248,336.575 C180.425,336.987 177.004,337.352 176.048,338.664 C176.174,332.846 178.639,332.34 180.45,332.74 Z" id="Path" fill="#709E3E"></path>
            <g id="Group" opacity="0.62" transform="translate(162.000000, 332.000000)" fill="#93BC6C">
                <path d="M0.393,6.413 C3.23968169,6.19264127 6.096168,6.68981017 8.701,7.859 C8.745,7.878 8.783,7.815 8.739,7.794 C6.13550332,6.57720161 3.25390886,6.07898201 0.393,6.351 C0.354,6.351 0.353,6.416 0.393,6.413 L0.393,6.413 L0.393,6.413 Z" id="Path"></path>
                <path d="M1.386,5.751 C3.5030513,5.08256064 5.80214235,5.31775251 7.74,6.401 C7.75755932,6.41012697 7.77919174,6.40382123 7.78909653,6.38668862 C7.79900132,6.36955601 7.79367147,6.34766271 7.777,6.337 C5.85286039,5.15158767 3.49108654,4.91493107 1.37,5.695 C1.35744052,5.70108855 1.35099982,5.71526008 1.35467228,5.72872574 C1.35834473,5.74219141 1.37108841,5.75113083 1.385,5.75 L1.385,5.75 L1.386,5.751 Z" id="Path"></path>
                <path d="M0.911,6.78 C1.811,8.765 5.065,8.493 6.779,8.041 C6.80882337,8.03271572 6.82628426,8.00182338 6.81799999,7.972 C6.80971572,7.94217663 6.77882337,7.92471574 6.749,7.933 C5.083,8.345 1.863,8.659 0.969,6.746 C0.95,6.706 0.893,6.741 0.91,6.78 L0.91,6.78 L0.911,6.78 Z" id="Path"></path>
                <path d="M9.386,9.773 C12.1017517,8.60209768 15.26298,9.6777364 16.701,12.262 C16.7095604,12.2769117 16.7285883,12.2820604 16.7435,12.2735 C16.7584117,12.2649396 16.7635604,12.2459117 16.755,12.231 C15.3498584,9.56263858 12.1036223,8.4586021 9.363,9.717 C9.34848146,9.72435458 9.34212231,9.74168433 9.34843796,9.75668402 C9.35475362,9.7716837 9.37159341,9.77924548 9.387,9.774 L9.387,9.774 L9.386,9.773 Z" id="Path"></path>
                <path d="M9.741,10.136 C12.0063158,10.4142928 14.2175644,11.02836 16.302,11.958 C16.324,11.968 16.344,11.936 16.321,11.925 C14.2567729,10.9163622 12.0273015,10.2889529 9.74,10.073 C9.699,10.073 9.7,10.132 9.74,10.136 L9.74,10.136 L9.741,10.136 Z" id="Path"></path>
                <path d="M9.015,10.75 C11.1323861,11.979424 13.5742748,12.5340816 16.015,12.34 C16.074,12.335 16.075,12.24 16.015,12.247 C13.5913863,12.3912842 11.1753924,11.8587823 9.037,10.709 C9.02594838,10.7045052 9.01327305,10.708811 9.00724592,10.7191074 C9.00121879,10.7294037 9.00367005,10.7425641 9.013,10.75 L9.013,10.75 L9.015,10.75 Z" id="Path"></path>
                <path d="M14.259,6.409 C15.4821874,4.42324757 17.2139631,2.80057092 19.275,1.709 C19.3004051,1.69408831 19.3089117,1.6614051 19.294,1.636 C19.2790883,1.6105949 19.2464051,1.60208831 19.221,1.617 C17.0960302,2.64648769 15.3425265,4.30950377 14.202,6.377 C14.1928873,6.39246397 14.198036,6.4123873 14.2135,6.4215 C14.228964,6.4306127 14.2488873,6.42546397 14.258,6.41 L14.258,6.41 L14.259,6.409 Z" id="Path"></path>
                <path d="M16.401,5.396 C18.0805692,4.74887594 19.4693509,3.51602135 20.311,1.925 C20.3201847,1.90488077 20.3126097,1.88107558 20.2934872,1.86996385 C20.2743647,1.85885211 20.2499319,1.86405819 20.237,1.882 C19.3630333,3.42308734 18.011309,4.63791934 16.386,5.343 C16.353,5.357 16.367,5.411 16.401,5.397 L16.401,5.397 L16.401,5.396 Z" id="Path"></path>
                <path d="M14.312,4.996 C14.8917075,2.84599766 16.7882703,1.31260642 19.012,1.196 C19.0350684,1.192608 19.0521626,1.17281646 19.0521626,1.1495 C19.0521626,1.12618354 19.0350684,1.106392 19.012,1.103 C16.7289978,1.17211376 14.7745737,2.76039047 14.24,4.981 C14.2347533,4.99977768 14.2457223,5.01925327 14.2645,5.02449998 C14.2832777,5.02974668 14.3027533,5.01877767 14.308,5 L14.308,5 L14.312,4.996 Z" id="Path"></path>
                <path d="M32.959,4.93 C33.8756609,3.47110671 35.1549614,2.27484193 36.672,1.458 C36.6884342,1.44835383 36.6984739,1.43067285 36.6983385,1.41161731 C36.6982004,1.39256178 36.6879081,1.37502668 36.6713372,1.36561731 C36.6547662,1.35620795 36.6344342,1.35635383 36.618,1.366 C35.0374607,2.12057913 33.7368252,3.35679557 32.903,4.897 C32.8938873,4.91246397 32.899036,4.93238729 32.9145,4.94149998 C32.929964,4.95061267 32.9498873,4.94546396 32.959,4.93 L32.959,4.93 Z" id="Path"></path>
                <path d="M34.537,4.181 C35.7864133,3.70891033 36.8185863,2.79383558 37.437,1.61 C37.4461847,1.58988077 37.4386097,1.56607558 37.4194872,1.55496385 C37.4003647,1.54385211 37.3759319,1.54905819 37.363,1.567 C36.7118054,2.7006823 35.7163239,3.59738624 34.521,4.127 C34.488,4.141 34.502,4.195 34.536,4.181 L34.536,4.181 L34.537,4.181 Z" id="Path"></path>
                <path d="M32.997,3.884 C33.4306593,2.29904763 34.8293136,1.16900907 36.47,1.078 C36.4930684,1.074608 36.5101626,1.05481646 36.5101626,1.0315 C36.5101626,1.00818354 36.4930684,0.988391997 36.47,0.985 C34.7729173,1.03032911 33.3191216,2.21274411 32.929,3.865 C32.9237533,3.88377768 32.9347223,3.90325329 32.9535,3.9085 C32.9722777,3.91374671 32.9917533,3.90277768 32.997,3.884 L32.997,3.884 L32.997,3.884 Z" id="Path"></path>
                <path d="M4.774,24.452 C6.26903393,21.6052773 8.32180538,19.0886257 10.81,17.052 C10.8210565,17.0379932 10.821196,17.0182688 10.8103386,17.004107 C10.7994813,16.9899453 10.780397,16.9849591 10.764,16.992 C8.17750982,18.9430767 6.10314816,21.4927056 4.719,24.422 C4.701,24.459 4.756,24.492 4.775,24.455 L4.775,24.455 L4.774,24.452 Z" id="Path"></path>
                <path d="M4.459,24.565 C3.90114309,20.8633936 6.35427249,17.3779937 10.027,16.654 C10.048512,16.6472346 10.060842,16.6246885 10.0549313,16.6029261 C10.0490205,16.5811637 10.0269788,16.5679531 10.005,16.573 C6.25895702,17.2632485 3.75746485,20.828609 4.383,24.586 C4.39,24.637 4.467,24.6150405 4.46,24.565 L4.46,24.565 L4.459,24.565 Z" id="Path"></path>
                <path d="M5.099,24.387 C8.45736403,24.1116507 11.0980567,21.4013875 11.286,18.037 C11.286,17.991 11.222,17.994 11.217,18.037 C10.9566901,21.3296911 8.38409471,23.9678839 5.099,24.311 C5.051,24.316 5.05,24.393 5.099,24.388 L5.099,24.388 L5.099,24.387 Z" id="Path"></path>
                <path d="M20.459,16.679 C23.2981859,17.9494158 25.3761765,20.4791436 26.071,23.511 C26.0756944,23.528397 26.093603,23.5386944 26.111,23.534 C26.128397,23.5293056 26.1386944,23.511397 26.134,23.494 C25.4841411,20.4221719 23.3773922,17.8601114 20.489,16.629 C20.456,16.614 20.426,16.663 20.46,16.679 L20.46,16.679 L20.459,16.679 Z" id="Path"></path>
                <path d="M20.841,16.836 C23.941,17.297 27.408,18.383 27.271,22.184 C27.271,22.207196 27.289804,22.226 27.313,22.226 C27.336196,22.226 27.355,22.207196 27.355,22.184 C27.655,18.344 23.955,17.204 20.855,16.774 C20.8140319,16.768 20.796,16.83 20.838,16.837 L20.838,16.837 L20.841,16.836 Z" id="Path"></path>
                <path d="M20.677,17.358 C20.043,20.267 22.946,21.897 25.26,22.715 C25.2754066,22.7202455 25.2922464,22.7126837 25.298562,22.697684 C25.3048777,22.6826843 25.2985185,22.6653546 25.284,22.658 C23.13,21.658 20.122,20.319 20.744,17.376 C20.753,17.333 20.687,17.314 20.677,17.358 L20.677,17.358 L20.677,17.358 Z" id="Path"></path>
                <path d="M22.003,7.914 C22.069,12.137 28.212,13.461 31.503,13.4580051 C31.5195685,13.4580051 31.533,13.4445685 31.533,13.428 C31.533,13.4114315 31.5195685,13.398 31.503,13.398 C28.216,13.28 22.213,12.118 22.037,7.914 C22.037,7.90461116 22.0293888,7.897 22.02,7.897 C22.0106112,7.897 22.003,7.90461116 22.003,7.914 L22.003,7.914 Z" id="Path"></path>
                <path d="M22.817,8.429 C25.7078133,10.482189 28.8391023,12.1737701 32.141,13.466 C32.185,13.483 32.204,13.412 32.161,13.395 C28.8707401,12.0951679 25.7427443,10.4172386 22.84,8.395 C22.817,8.379 22.795,8.417 22.818,8.433 L22.818,8.433 L22.817,8.429 Z" id="Path"></path>
                <path d="M22.89,7.763 C26.5638688,8.4491395 29.8805201,10.4026089 32.262,13.283 C32.305,13.333 32.374,13.261 32.334,13.211 C29.9744009,10.2809059 26.6179767,8.32287308 22.906,7.711 C22.8699277,7.705 22.854,7.76 22.891,7.766 L22.891,7.766 L22.89,7.763 Z" id="Path"></path>
                <path d="M23.289,6.75 C27.959,6.484 31.955,8.243 32.469,13.366 C32.4718726,13.3828117 32.4864447,13.3951051 32.5035,13.3951051 C32.5205553,13.3951051 32.5351274,13.3828117 32.538,13.366 C32.5192073,11.3511375 31.6025814,9.44968863 30.038,8.18 C28.086,6.602 25.682,6.52 23.284,6.689 C23.245,6.689 23.244,6.753 23.284,6.751 L23.284,6.751 L23.289,6.75 Z" id="Path"></path>
                <path d="M38.123,4.207 C38.457,7.227 42.953,7.807 45.332,7.607 C45.3485685,7.607 45.362,7.59356854 45.362,7.577 C45.362,7.56043146 45.3485685,7.547 45.332,7.547 C42.947,7.624 38.599,7.211 38.156,4.204 C38.1541192,4.19641734 38.1473124,4.19109268 38.1395,4.19109268 C38.1316876,4.19109268 38.1248808,4.19641734 38.123,4.204 L38.123,4.204 L38.123,4.207 Z" id="Path"></path>
                <path d="M38.743,4.531 C40.9620928,5.82682948 43.3295684,6.84990398 45.794,7.578 C45.8129236,7.58172862 45.8315372,7.57029504 45.8367668,7.55173007 C45.8419963,7.53316511 45.8320875,7.51369704 45.814,7.507 C43.3592071,6.76944829 40.9950468,5.75844105 38.766,4.493 C38.7556071,4.48784479 38.7429971,4.49164578 38.7371845,4.50168577 C38.7313719,4.51172577 38.7343544,4.524554 38.744,4.531 L38.744,4.531 L38.743,4.531 Z" id="Path"></path>
                <path d="M38.77,4.062 C41.4536812,4.34313403 43.9597651,5.53617116 45.87,7.442 C45.8901828,7.45993663 45.9208483,7.45903392 45.9399411,7.43994113 C45.9590339,7.42084833 45.9599366,7.39018284 45.942,7.37 C44.0432455,5.41192872 41.4943975,4.21521135 38.775,4.005 C38.738,4.005 38.739,4.059 38.775,4.063 L38.775,4.063 L38.77,4.062 Z" id="Path"></path>
                <path d="M39.002,3.327 C42.315,2.905 45.319,3.872 46.025,7.487 C46.0304298,7.50272768 46.0461815,7.51245878 46.0626762,7.51027566 C46.0791709,7.50809253 46.0918487,7.4945987 46.093,7.478 C45.9767256,6.04053491 45.2055832,4.73648925 44.002,3.942 C42.4788551,3.08955901 40.6886464,2.84790943 38.994,3.266 C38.9788683,3.26993817 38.969038,3.28452865 38.9710712,3.30003165 C38.9731043,3.31553465 38.9863645,3.32709686 39.002,3.327 L39.002,3.327 L39.002,3.327 Z" id="Path"></path>
                <path d="M40.352,12.532 C40.6695166,13.0749784 41.1926679,13.4668912 41.803,13.619 C42.415,13.777 43.065,13.699 43.688,13.808 C44.6051151,13.9818298 45.4796785,14.3323344 46.263,14.84 C46.2656433,14.8408248 46.2685077,14.8397337 46.2699323,14.8373594 C46.2713569,14.834985 46.2709717,14.8319441 46.269,14.83 C45.3820409,14.229913 44.3682753,13.8431625 43.307,13.7 C42.196,13.565 41.032,13.615 40.39,12.511 C40.3839249,12.5007827 40.3707173,12.4974249 40.3605,12.5035 C40.3502827,12.5095751 40.3469249,12.5227827 40.353,12.533 L40.353,12.533 L40.352,12.532 Z" id="Path"></path>
                <path d="M40.753,11.981 C42.8454499,12.0074778 44.8124311,12.9836097 46.099,14.634 C46.1044315,14.6383581 46.112148,14.638405 46.117632,14.6341131 C46.123116,14.6298213 46.124925,14.6223197 46.122,14.616 C44.8622595,12.9162615 42.8676351,11.9189493 40.752,11.931 C40.7381929,11.931 40.727,11.9421929 40.727,11.956 C40.727,11.9698071 40.7381929,11.981 40.752,11.981 L40.752,11.981 L40.753,11.981 Z" id="Path"></path>
                <path d="M41.377,11.619 C42.3329205,11.2830547 43.3865788,11.3692542 44.2751869,11.8561001 C45.163795,12.3429459 45.8035887,13.1845457 46.035,14.171 C46.0391421,14.1859117 46.0545883,14.1946421 46.0695,14.1905 C46.0844117,14.1863578 46.0931421,14.1709117 46.089,14.156 C45.8687435,13.1463262 45.2220029,12.2815255 44.315753,11.7848715 C43.4095032,11.2882174 42.3325718,11.2083904 41.363,11.566 C41.33,11.577 41.344,11.63 41.378,11.619 L41.378,11.619 L41.377,11.619 Z" id="Path"></path>
            </g>
            <path d="M163.934,342.23 C163.191,341.591 160.262,340.449 158.305,341.808 C155.826014,343.579063 154.220861,346.32405 153.893,349.353 C155.787804,349.706423 157.721936,349.79995 159.642,349.631 C165.759,349.102 165.312,343.415 163.934,342.23 Z" id="Path" fill="#93BC6C"></path>
            <path d="M197.888,335.843 C197.264,335.411 194.914,334.765 193.515,335.969 C191.799018,337.444819 190.857482,339.62809 190.962,341.889 C192.358372,342.091383 193.776628,342.091383 195.173,341.889 C199.849,340.996 199.047,336.646 197.888,335.843 Z" id="Path" fill="#93BC6C"></path>
            <path d="M183.142,329.106 C182.475351,329.366451 181.979506,329.938206 181.816,330.635 C181.737529,331.501864 182.30879,332.294383 183.156,332.494 C183.918,332.694 186.845,332.369 187.879,333.302 C187.88,329.296 184.586,328.434 183.142,329.106 Z" id="Path" fill="#93BC6C"></path>
            <path d="M196.835,348.296 C197.529,347.908 200.304,346.984 201.891,348.146 C204.784,350.266 203.579,352.988 203.568,353.854 C201.994674,354.006862 200.408697,353.970603 198.844,353.746 C193.586,352.786 194.383,349.29 196.835,348.296 Z" id="Path" fill="#93BC6C"></path>
            <path d="M154.259,349.104 C155.485679,348.348451 156.609069,347.436831 157.601,346.392 C159.176267,344.847367 161.050627,343.641012 163.109,342.847 C163.161,342.827 163.141,342.747 163.085,342.762 C159.333,343.917 157.476,347.182 154.211,349.023 C154.188356,349.036255 154.180745,349.065356 154.194,349.088 C154.207255,349.110644 154.236356,349.118255 154.259,349.105 L154.259,349.105 L154.259,349.104 Z" id="Path" fill="#709E3E"></path>
            <path d="M154.259,348.696 C155.136228,347.223847 156.104791,345.808076 157.159,344.457 C158.744,342.701 160.617,342.278 162.914,342.357 C162.995,342.357 163.014,342.225 162.934,342.212 C158.207,341.474 156.345,345.242 154.215,348.667 C154.210145,348.679366 154.215008,348.693427 154.226465,348.700152 C154.237923,348.706877 154.25257,348.704268 154.261,348.694 L154.261,348.694 L154.259,348.696 Z" id="Path" fill="#709E3E"></path>
            <path d="M155.443,349.307 C158.99,349.128 164.966,348.389 163.979,343.384 C163.96814,343.352545 163.936637,343.333082 163.903648,343.337449 C163.870658,343.341815 163.845303,343.368803 163.843,343.402 C163.861,344.953 163.606,346.571 162.288,347.568 C160.528,348.9 157.545,349.068 155.442,349.212 C155.382,349.212 155.381,349.312 155.442,349.306 L155.442,349.306 L155.443,349.307 Z" id="Path" fill="#709E3E"></path>
            <path d="M154.628,349.174 C156.458,348.574 158.404,348.213 160.17,347.427 C161.911,346.652 162.649,345.142 163.525,343.537 C163.538255,343.514356 163.530644,343.485255 163.508,343.472 C163.485356,343.458745 163.456255,343.466356 163.443,343.489 C162.266,345.439 161.335,346.853 159.108,347.682 C157.634,348.231 156.093,348.582 154.608,349.082 C154.553,349.101 154.576,349.189 154.632,349.17 L154.632,349.17 L154.628,349.174 Z" id="Path" fill="#709E3E"></path>
            <path d="M182.902,330.213 C184.6391,330.65695 186.222234,331.56624 187.481,332.843 C187.49315,332.85515 187.51285,332.85515 187.525,332.843 C187.53715,332.83085 187.53715,332.81115 187.525,332.799 C186.302989,331.459159 184.690008,330.538256 182.915,330.167 C182.9028,330.164723 182.890877,330.172123 182.887502,330.184066 C182.884127,330.196008 182.890413,330.208554 182.902,330.213 L182.902,330.213 L182.902,330.213 Z" id="Path" fill="#709E3E"></path>
            <path d="M182.227,330.715 C182.420218,331.194733 182.849698,331.538923 183.36,331.623 C184.439,331.982 185.532,332.323 186.633,332.602 C186.645147,332.605394 186.658182,332.60205 186.667195,332.593227 C186.676208,332.584405 186.679829,332.571444 186.676695,332.559227 C186.673561,332.547011 186.664147,332.537394 186.652,332.534 C185.952,332.279 185.252,332.061 184.538,331.846 C183.824,331.631 182.618,331.472 182.32,330.689 C182.298,330.631 182.205,330.655 182.226,330.715 L182.226,330.715 L182.227,330.715 Z" id="Path" fill="#709E3E"></path>
            <path d="M182.933,329.902 C184.961115,329.559986 186.946511,330.705827 187.665,332.633 C187.681,332.669 187.737,332.643 187.727,332.607 C187.079092,330.572345 184.993261,329.361161 182.905,329.807 C182.839,329.819 182.868,329.917 182.932,329.907 L182.932,329.907 L182.933,329.902 Z" id="Path" fill="#709E3E"></path>
            <path d="M191.464,341.734 C193.596,340.307 195.647,338.734 197.693,337.183 C197.700568,337.17761 197.702801,337.167336 197.698132,337.159294 C197.693463,337.151253 197.683437,337.148092 197.675,337.152 C195.475,338.478 193.557,340.243 191.441,341.694 C191.417,341.711 191.441,341.75 191.464,341.733 L191.464,341.733 L191.464,341.734 Z" id="Path" fill="#709E3E"></path>
            <path d="M192.018,341.65 C194.381,341.289 197.066,339.818 198.003,337.502 C198.005972,337.487026 197.997953,337.472039 197.983847,337.466202 C197.969742,337.460365 197.953477,337.465305 197.945,337.478 C196.746856,339.732375 194.539063,341.274296 192.01,341.623 C191.992,341.623 192,341.653 192.017,341.65 L192.017,341.65 L192.018,341.65 Z" id="Path" fill="#709E3E"></path>
            <path d="M191.359,341.432 C192.531601,339.162628 194.582413,337.47247 197.034,336.755 C197.051397,336.750306 197.061694,336.732397 197.057,336.715 C197.052306,336.697603 197.034397,336.687306 197.017,336.692 C194.512793,337.346279 192.420267,339.063561 191.29,341.392 C191.28097,341.410827 191.28794,341.433432 191.306005,341.443904 C191.324069,341.454376 191.34715,341.449192 191.359,341.432 L191.359,341.432 L191.359,341.432 Z" id="Path" fill="#709E3E"></path>
            <path d="M192.48,341.736 C194.121948,341.864879 195.761139,341.454817 197.149,340.568 C198.11032,340.027443 198.539014,338.870435 198.162,337.834 C198.147,337.799 198.09,337.824 198.101,337.86 C199.125,340.989 194.511,341.642 192.48,341.693 C192.468126,341.693 192.4585,341.702626 192.4585,341.7145 C192.4585,341.726374 192.468126,341.736 192.48,341.736 L192.48,341.736 Z" id="Path" fill="#709E3E"></path>
            <path d="M191.173,340.996 C191.864,338.221 193.66,335.962 196.783,336.158 C196.845,336.158 196.842,336.07 196.783,336.064 C193.655,335.709 191.729,338.219 191.102,340.977 C191.098271,340.995924 191.109705,341.014537 191.12827,341.019767 C191.146835,341.024996 191.166303,341.015087 191.173,340.997 L191.173,340.997 L191.173,340.996 Z" id="Path" fill="#709E3E"></path>
            <path d="M197.607,348.596 C199.726867,349.981738 201.622145,351.683779 203.227,353.643 C203.251,353.67 203.289,353.631 203.267,353.603 C201.681101,351.619779 199.776052,349.914461 197.63,348.557 C197.61956,348.553126 197.607844,348.557288 197.602187,348.56688 C197.596531,348.576472 197.598558,348.588738 197.607,348.596 L197.607,348.596 L197.607,348.596 Z" id="Path" fill="#709E3E"></path>
            <path d="M197.865,348.431 C200.513983,348.813406 202.680571,350.736946 203.374,353.322 C203.378971,353.339673 203.397327,353.349971 203.415,353.345 C203.432673,353.340029 203.442971,353.321673 203.438,353.304 C202.788432,350.667478 200.57329,348.709262 197.877,348.388 C197.849,348.388 197.837,348.426 197.865,348.431 L197.865,348.431 L197.865,348.431 Z" id="Path" fill="#709E3E"></path>
            <path d="M198.414,348.27 C199.780338,348.092699 201.158913,348.491131 202.22,349.37 C203.055422,350.22542 203.475798,351.402911 203.371,352.594 C203.371,352.613606 203.386894,352.6295 203.4065,352.6295 C203.426106,352.6295 203.442,352.613606 203.442,352.594 C203.585259,351.377894 203.157716,350.163938 202.284,349.306 C201.204799,348.415767 199.798959,348.024428 198.415,348.229 C198.39,348.229 198.389,348.272 198.415,348.269 L198.415,348.269 L198.414,348.27 Z" id="Path" fill="#709E3E"></path>
            <path d="M197.408,348.626 C195.797,350.92 201.569,353.341 203.049,353.657 C203.069082,353.659462 203.087958,353.646907 203.09345,353.627435 C203.098942,353.607962 203.089409,353.587394 203.071,353.579 C201.671,353.188 196.002,350.925 197.458,348.655 C197.478,348.623 197.429,348.596 197.408,348.626 L197.408,348.626 L197.408,348.626 Z" id="Path" fill="#709E3E"></path>
            <path d="M196.765,348.855 C196.303987,349.173047 196.012297,349.683195 195.972048,350.241825 C195.931798,350.800455 196.147343,351.347149 196.558,351.728 C197.805,353.162 200.165,353.669 201.971,353.662 C201.995853,353.662 202.016,353.641853 202.016,353.617 C202.016,353.592147 201.995853,353.572 201.971,353.572 C200.852332,353.537542 199.746793,353.32069 198.698,352.93 C197.345,352.398 194.498,350.422 196.793,348.902 C196.805979,348.894268 196.810232,348.877479 196.8025,348.8645 C196.794768,348.851521 196.777979,348.847268 196.765,348.855 L196.765,348.855 L196.765,348.855 Z" id="Path" fill="#709E3E"></path>
            <rect id="Rectangle" fill="#4C2311" x="103.822" y="378.908" width="10.026" height="197.199"></rect>
            <rect id="Rectangle" fill="#4C2311" x="516.41" y="378.908" width="10.027" height="197.199"></rect>
            <rect id="Rectangle" fill="#4C2311" x="83.481" y="373.164" width="463.295" height="8.699"></rect>
            <rect id="Rectangle" fill="#66341B" x="78.622" y="371.425" width="473.014" height="3.899"></rect>
            <rect id="Rectangle" fill="#525252" x="160.802" y="369.413" width="99.989" height="2.012"></rect>
            <path d="M256.568,366.816 C256.568,366.816 217.043,364.476 211.232,368.555 C203.259,364.921 165.023,366.816 165.023,366.816 L165.023,369.416 L256.568,369.416 L256.568,366.816 Z" id="Path" fill="#D6D6D6"></path>
            <path d="M256.568,368.555 C252.777,368.255 248.982,368.01 245.186,367.806 C241.39,367.602 237.593,367.406 233.793,367.306 C229.993,367.206 226.193,367.171 222.393,367.306 C220.493,367.379 218.601,367.497 216.722,367.724 C215.784359,367.831855 214.85282,367.987389 213.931,368.19 C213.022515,368.364155 212.150146,368.691124 211.351,369.157 L211.251,369.225 L211.137,369.177 C210.254964,368.820833 209.339835,368.55286 208.405,368.377 C207.465,368.19 206.511,368.058 205.556,367.942 C203.641,367.726 201.713,367.609 199.784,367.529 C195.925,367.374 192.057,367.387 188.193,367.463 C184.329,367.539 180.463,367.693 176.601,367.888 C172.738333,368.063333 168.877333,368.285333 165.018,368.554 C172.723,367.86 180.449,367.372 188.186,367.173 C192.054,367.073 195.926,367.034 199.798,367.165 C201.734,367.233 203.669,367.337 205.598,367.543 C206.563,367.653 207.527,367.781 208.484,367.965 C209.453352,368.136949 210.401911,368.410456 211.314,368.781 L211.101,368.801 C211.947659,368.306825 212.873236,367.96244 213.837,367.783 C214.773701,367.583507 215.719916,367.431645 216.672,367.328 C218.572,367.111 220.472,367.005 222.378,366.944 C226.186,366.833 229.992,366.891 233.795,367.016 C241.407,367.267 248.999,367.811 256.568,368.555 Z" id="Path" fill="#A5A5AF"></path>
            <path d="M256.568,368.555 C252.785333,368.453 249.002333,368.375333 245.219,368.322 C241.437,368.248 237.654,368.189 233.871,368.164 C230.088,368.139 226.305,368.148 222.525,368.232 C220.635,368.277 218.746,368.34 216.861,368.453 C215.919,368.512 214.977,368.576 214.043,368.683 C213.116305,368.7582 212.199428,368.925697 211.306,369.183 L211.247,369.203 L211.187,369.191 C210.253217,369.034376 209.310841,368.934194 208.365,368.891 C207.413,368.827 206.457,368.791 205.502,368.758 C203.59,368.694 201.676,368.664 199.762,368.643 C195.934,368.608 192.104,368.621 188.274,368.653 L165.296,368.984 L176.781,368.593 L188.271,368.363 C192.101,368.306 195.932,368.263 199.765,368.278 C201.681,368.286 203.597,368.304 205.514,368.356 C206.472,368.383 207.431,368.413 208.39,368.471 C209.358248,368.506936 210.323039,368.607157 211.278,368.771 L211.159,368.779 C212.085961,368.516629 213.037177,368.349102 213.998,368.279 C214.945,368.179 215.891,368.118 216.838,368.065 C218.731,367.965 220.624,367.912 222.518,367.879 C226.304,367.819 230.089,367.838 233.874,367.879 C237.659,367.92 241.442,368.006 245.225,368.114 C249.007,368.24 252.788,368.387 256.568,368.555 Z" id="Path" fill="#A5A5AF"></path>
            <rect id="Rectangle" fill="#525252" x="304.077" y="369.413" width="99.989" height="2.012"></rect>
            <path d="M399.844,366.816 C399.844,366.816 360.319,364.476 354.508,368.555 C346.535,364.921 308.299,366.816 308.299,366.816 L308.299,369.416 L399.844,369.416 L399.844,366.816 Z" id="Path" fill="#D6D6D6"></path>
            <path d="M399.844,368.555 C396.053,368.255 392.258,368.01 388.462,367.806 C384.666,367.602 380.869,367.406 377.069,367.306 C373.269,367.206 369.469,367.171 365.669,367.306 C363.769,367.379 361.877,367.497 359.998,367.724 C359.060359,367.831855 358.12882,367.987389 357.207,368.19 C356.298526,368.364192 355.426163,368.691159 354.627,369.157 L354.527,369.225 L354.413,369.177 C353.531284,368.820902 352.616493,368.55293 351.682,368.377 C350.741,368.19 349.788,368.058 348.832,367.942 C346.918,367.726 344.989,367.609 343.06,367.529 C339.201,367.374 335.333,367.387 331.469,367.463 C327.605,367.539 323.74,367.693 319.878,367.888 C316.011333,368.063333 312.15,368.285333 308.294,368.554 C315.999,367.86 323.725,367.372 331.462,367.173 C335.33,367.073 339.202,367.034 343.074,367.165 C345.01,367.233 346.945,367.337 348.874,367.543 C349.839,367.653 350.803,367.781 351.761,367.965 C352.730335,368.137021 353.678887,368.410526 354.591,368.781 L354.378,368.801 C355.224607,368.306716 356.150204,367.962324 357.114,367.783 C358.050695,367.583478 358.996912,367.431616 359.949,367.328 C361.849,367.111 363.749,367.005 365.654,366.944 C369.462,366.833 373.268,366.891 377.071,367.016 C384.683,367.267 392.274,367.811 399.844,368.555 Z" id="Path" fill="#A5A5AF"></path>
            <path d="M399.844,368.555 C396.061333,368.453 392.278333,368.375333 388.495,368.322 C384.712,368.248 380.929,368.189 377.146,368.164 C373.363,368.139 369.58,368.148 365.8,368.232 C363.91,368.277 362.021,368.34 360.136,368.453 C359.194,368.512 358.252,368.576 357.318,368.683 C356.391304,368.758194 355.474427,368.925691 354.581,369.183 L354.522,369.203 L354.462,369.191 C353.528218,369.034371 352.585841,368.93419 351.64,368.891 C350.688,368.827 349.732,368.791 348.777,368.758 C346.866,368.694 344.951,368.664 343.037,368.643 C339.209,368.608 335.379,368.621 331.549,368.653 L308.57,368.984 L320.059,368.588 L331.549,368.358 C335.38,368.301 339.21,368.258 343.043,368.273 C344.959,368.281 346.875,368.299 348.792,368.351 C349.751,368.378 350.709,368.408 351.668,368.466 C352.636247,368.501951 353.601037,368.602171 354.556,368.766 L354.438,368.774 C355.364945,368.511561 356.316169,368.344034 357.277,368.274 C358.223,368.174 359.17,368.113 360.116,368.06 C362.009,367.96 363.903,367.907 365.796,367.874 C369.582,367.814 373.368,367.833 377.152,367.874 C380.936,367.915 384.72,368.001 388.502,368.109 C392.282667,368.238333 396.063333,368.387 399.844,368.555 Z" id="Path" fill="#A5A5AF"></path>
            <polygon id="Path" fill="#FFE1BD" points="452.191 540.283 453.854 550.265 461.466 550.265 464.741 549.704 462.344 534.191"></polygon>
            <path d="M463.38,537.425 C462.652,537.761 461.88,538.055 461.08,538.335 C457.854404,539.320244 454.5562,540.049835 451.216,540.517 C442.116,525.587 418.503,452.863 418.503,452.863 C416.332,443.676 430.128,455.439 435.871,455.089 C437.670922,454.950235 439.479185,455.213242 441.165,455.859 C446.655,458.184 454.708,473.715 454.708,473.715 C454.708,473.715 457.159,479.079 459.722,490.171 C462.285,501.263 463.38,537.425 463.38,537.425 Z" id="_Path_16" fill="#1A1A47"></path>
            <path d="M463.38,537.425 C462.652,537.761 461.88,538.055 461.08,538.335 C460.506,533.909 459.652,526.851 458.391,515.604 C455.576,490.395 439.596,461.53 435.87,455.088 C437.669922,454.949235 439.478185,455.212242 441.164,455.858 C446.654,458.183 454.707,473.714 454.707,473.714 C454.707,473.714 457.158,479.078 459.721,490.17 C462.284,501.262 463.38,537.425 463.38,537.425 Z" id="_Path_17" fill="#3D3D72" opacity="0.54"></path>
            <path d="M453.359,548.812 C455.333256,548.827008 457.297159,548.525519 459.176,547.919 C461.009414,547.24226 462.679197,546.185866 464.076,544.819 C464.076,544.819 472.155,549.752 472.144011,558.61 C472.136078,559.075781 471.842395,559.488686 471.405,559.649 C471.405,559.649 452.033,568.255 445.369,570.609 C441.859335,571.728105 438.29016,572.651196 434.678,573.374 C434.223899,573.518107 433.734005,573.298128 433.54,572.863 C433.19,571.963 433.016,570.385 434.992,568.869 C437.992,566.569 441.279,564.686 443.558,562.778 C445.837,560.87 448.166,555.609 450.011,554.112 C451.568804,552.666455 452.722764,550.839698 453.359,548.812 L453.359,548.812 Z" id="_Path_18" fill="#1A1A47"></path>
            <g id="Group" transform="translate(396.000000, 431.000000)">
                <path d="M97.484,161.848 L100.313,10.617 L90.251,10.617 L93.08,161.848 C93.113,163.382 94.099,164.625 95.28,164.625 C96.461,164.625 97.45,163.382 97.484,161.848 Z" id="Path" fill="#723E24"></path>
                <path d="M5.03,144.157 L63.459,4.64 L54.108,0.928 L0.938,142.528 C0.403,143.966 0.861,145.485 1.96,145.922 C3.059,146.359 4.433,145.571 5.03,144.157 Z" id="Path" fill="#723E24"></path>
                <path d="M185.534,144.157 L127.106,4.64 L136.457,0.928 L189.627,142.528 C190.162,143.966 189.705,145.485 188.606,145.922 C187.507,146.359 186.131,145.571 185.534,144.157 Z" id="Path" fill="#723E24"></path>
                <g opacity="0.3" style="mix-blend-mode: multiply;" transform="translate(3.000000, 0.000000)" fill="#000000" id="Path">
                    <path d="M49.484,5.252 L55.434,7.614 L0.514,145.814 C1.20235761,145.462694 1.74070436,144.874631 2.03,144.158 L60.459,4.64 L51.108,0.928 L49.484,5.252 Z"></path>
                    <path d="M87.326,14.596 L94.826,14.596 L92.021,164.589 C92.1082207,164.607933 92.1968546,164.61964 92.286,164.624 C93.469,164.624 94.454,163.381 94.486,161.847 L97.315,10.616 L87.251,10.616 L87.326,14.596 Z"></path>
                    <path d="M186.627,142.533 L133.457,0.933 L124.106,4.645 L125.181,7.211 L130.967,4.911 L183.832,145.696 C184.354137,146.047127 185.011476,146.130916 185.605,145.922 C186.705,145.49 187.159,143.97 186.627,142.533 Z"></path>
                </g>
            </g>
            <path d="M420.419,364.896 L327.971,364.896 L309.671,307.359 C309.236477,305.993033 309.479799,304.501716 310.325968,303.344705 C311.172138,302.187694 312.519586,301.504 313.953,301.504 L396.971,301.504 C398.927867,301.504 400.659799,302.77021 401.253,304.635 L420.419,364.896 Z" id="_Path_19" fill="#FFFFFF"></path>
            <path d="M418.924,364.896 L330.408,364.896 L312.279,308.422 C311.853631,307.074995 312.098172,305.605791 312.936925,304.469193 C313.775678,303.332594 315.107458,302.665718 316.52,302.674904 L395.696,302.674904 C397.626903,302.669971 399.340409,303.911566 399.937,305.748 L418.924,364.896 Z" id="_Path_20" fill="#E1EDF9"></path>
            <path d="M363.391,313.35 L323.059,313.35 C322.458114,313.35 321.971,312.862886 321.971,312.262 L321.971,312.262 C321.971,311.661114 322.458114,311.174 323.059,311.174 L363.386,311.174 C363.986886,311.174 364.474,311.661114 364.474,312.262 L364.474,312.262 C364.474,312.860939 363.989932,313.347248 363.391,313.35 Z" id="_Path_21" fill="#C2E0F2"></path>
            <path d="M369.636,318.379 L324.667,318.379 C324.066114,318.379 323.579,317.891886 323.579,317.291 L323.579,317.291 C323.579,317.002444 323.693628,316.725707 323.897668,316.521668 C324.101707,316.317628 324.378444,316.203 324.667,316.203 L369.636,316.203 C369.924556,316.203 370.201293,316.317628 370.405332,316.521668 C370.609372,316.725707 370.724,317.002444 370.724,317.291 L370.724,317.291 C370.724,317.891886 370.236886,318.379 369.636,318.379 Z" id="_Path_22" fill="#C2E0F2"></path>
            <path d="M365.47,323.408 L326.303,323.408 C326.014444,323.408 325.737707,323.293372 325.533668,323.089332 C325.329628,322.885293 325.215,322.608556 325.215,322.32 L325.215,322.32 C325.215,321.719114 325.702114,321.232 326.303,321.232 L365.469,321.232 C366.069886,321.232 366.557,321.719114 366.557,322.32 L366.557,322.32 C366.557,322.920496 366.070495,323.407448 365.47,323.408 Z" id="_Path_23" fill="#C2E0F2"></path>
            <path d="M358.942,328.437 L327.899,328.437 C327.298114,328.437 326.811,327.949886 326.811,327.349 L326.811,327.349 C326.811,327.060444 326.925628,326.783707 327.129668,326.579668 C327.333707,326.375628 327.610444,326.261 327.899,326.261 L358.942,326.261 C359.542886,326.261 360.03,326.748114 360.03,327.349 L360.03,327.349 C360.03,327.949886 359.542886,328.437 358.942,328.437 Z" id="_Path_24" fill="#C2E0F2"></path>
            <path d="M374.512,333.465 L329.543,333.465 C329.254444,333.465 328.977707,333.350372 328.773668,333.146332 C328.569628,332.942293 328.455,332.665556 328.455,332.377 L328.455,332.377 C328.455,331.776114 328.942114,331.289 329.543,331.289 L374.512,331.289 C375.112886,331.289 375.6,331.776114 375.6,332.377 L375.6,332.377 C375.6,332.665637 375.485723,332.942528 375.281626,333.146626 C375.077528,333.350723 374.800637,333.465266 374.512,333.465 L374.512,333.465 Z" id="_Path_25" fill="#C2E0F2"></path>
            <path d="M370.319,338.496 L331.153,338.496 C330.864444,338.496 330.587707,338.381372 330.383668,338.177332 C330.179628,337.973293 330.065,337.696556 330.065,337.408 L330.065,337.408 C330.065,337.119444 330.179628,336.842707 330.383668,336.638668 C330.587707,336.434628 330.864444,336.32 331.153,336.32 L370.319,336.32 C370.607556,336.32 370.884293,336.434628 371.088332,336.638668 C371.292372,336.842707 371.407,337.119444 371.407,337.408 L371.407,337.408 C371.407,338.008886 370.919886,338.496 370.319,338.496 Z" id="_Path_26" fill="#C2E0F2"></path>
            <path d="M379.331,348.552 L334.359,348.552 C334.070444,348.552 333.793707,348.437372 333.589668,348.233332 C333.385628,348.029293 333.271,347.752556 333.271,347.464 L333.271,347.464 C333.271,347.175444 333.385628,346.898707 333.589668,346.694668 C333.793707,346.490628 334.070444,346.376 334.359,346.376 L379.328,346.376 C379.928886,346.376 380.416,346.863114 380.416,347.464 L380.416,347.464 C380.416,348.063716 379.930714,348.550346 379.331,348.552 L379.331,348.552 Z" id="_Path_27" fill="#C2E0F2"></path>
            <path d="M380.968,353.581004 L335.999,353.581004 C335.398114,353.581004 334.911,353.093886 334.911,352.493 L334.911,352.493 C334.911,351.892114 335.398114,351.404996 335.999,351.404996 L380.968,351.404996 C381.257596,351.4042 381.535561,351.518888 381.740336,351.723664 C381.945112,351.928439 382.0598,352.206404 382.059004,352.496 L382.059004,352.496 C382.058205,352.784556 381.942814,353.060978 381.738212,353.264455 C381.53361,353.467932 381.256556,353.581797 380.968,353.581004 Z" id="_Path_28" fill="#C2E0F2"></path>
            <path d="M404.88,353.581011 L390.359,353.581011 C389.005057,353.582056 387.807056,352.704305 387.4,351.413 L375.29,313.085 C374.990628,312.141986 375.159369,311.112715 375.744178,310.314656 C376.328986,309.516597 377.259607,309.045622 378.249,309.046997 L392.775,309.046997 C394.128943,309.045944 395.326944,309.923695 395.734,311.215 L407.843,349.543 C408.142589,350.486687 407.973385,351.516711 407.387644,352.314963 C406.801903,353.113215 405.870097,353.583657 404.88,353.581011 L404.88,353.581011 Z" id="_Path_29" fill="#C2E0F2"></path>
            <path d="M428.166,369.084 L327.632,369.084 C325.989896,369.083448 324.659,367.752104 324.659,366.11 L324.659,366.11 C324.659,364.467896 325.989896,363.136552 327.632,363.136 L428.166,363.136 C429.808495,363.136 431.14,364.467505 431.14,366.11 L431.14,366.11 C431.14,366.898754 430.826669,367.655202 430.268936,368.212936 C429.711202,368.770669 428.954754,369.084 428.166,369.084 L428.166,369.084 Z" id="_Path_30" fill="#FFFFFF"></path>
            <g id="_Group_" transform="translate(451.000000, 273.000000)" fill="#1A1A47">
                <path d="M6.193,16.5850139 C5.28518878,16.5880076 4.4454667,16.1040223 3.993,15.317 L0.649,9.435 C0.31172264,8.84337504 0.228999639,8.14019711 0.419769607,7.4864518 C0.610539575,6.83270649 1.05846579,6.28437775 1.661,5.967 L10.97,1.05 C12.1879195,0.413009529 13.691624,0.86669815 14.354,2.071 L17.531,7.904 C17.8508964,8.49022212 17.9243997,9.1796359 17.7352917,9.82012655 C17.5461837,10.4606172 17.1100066,10.9995454 16.523,11.318 L7.382,16.283 C7.01705473,16.4812504 6.60831705,16.5850139 6.193,16.5850139 L6.193,16.5850139 Z M12.142,1.92099529 C11.9230361,1.92067166 11.7073579,1.97424778 11.514,2.077 L2.205,6.993 C1.88055255,7.16405284 1.63937946,7.45941202 1.536653,7.81150931 C1.43392654,8.16360659 1.47843632,8.54231543 1.66,8.861 L1.66,8.861 L5.005,14.743 C5.37301024,15.3814606 6.18184319,15.6117964 6.831,15.263 L15.972,10.298 C16.6292152,9.94011657 16.8718759,9.11721934 16.514,8.46 L13.338,2.627 C13.0986004,2.19050253 12.6398358,1.9196933 12.142,1.92099529 L12.142,1.92099529 Z" id="_Compound_Path_"></path>
            </g>
            <path d="M419.04,350.396 C418.673005,350.872397 418.281825,351.329664 417.868,351.766 C417.868,351.766 412.994,348.075 411.636,347.727 C410.278,347.379 407.389,348.458 405.736,348.551 C404.083,348.644 403.95,347.668 403.95,347.668 C403.95,347.668 397.659,350.291 396.65,350.535 C395.641,350.779 394.955,350.442 395.582,348.841 C395.890804,348.261718 396.281861,347.730203 396.743,347.263 L396.755,347.251 C398.902,344.825 403.324,340.951 404.913,340.183 C406.944,339.22 409.706,337.816 411.922,338.64 C414.138,339.464 421.357,344.872 421.357,344.872 C421.57,346.728 420.131,348.996 419.04,350.396 Z" id="_Path_31" fill="#FFE1BD"></path>
            <path d="M420.538,345.196 L419.038,350.396 C418.671005,350.872397 418.279825,351.329664 417.866,351.766 C417.866,351.766 412.992,348.075 411.634,347.727 C410.276,347.379 407.387,348.458 405.734,348.551 C404.081,348.644 403.948,347.668 403.948,347.668 C403.948,347.668 397.657,350.291 396.648,350.535 C395.639,350.779 394.953,350.442 395.58,348.841 C395.888804,348.261718 396.279861,347.730203 396.741,347.263 C396.208,348.001 395.616,348.763 395.966,349.701 C396.392,350.846 403.143,347.627 408.02,344.686 C408.096,344.64 408.488,344.446 408.62,344.673 C408.61531,344.885838 408.517311,345.085858 408.352,345.22 C407.539,346.093 403.452,346.4 404.279,347.704 C405.445,349.538 409.641,346.172 411.938,346.926 C413.775894,347.65756 415.514794,348.616709 417.114,349.781 C417.114,349.781 418.437,345.869 420.538,345.196 Z" id="_Path_32" fill="#FFD19F"></path>
            <path d="M417.127,351.768 C417.127,351.768 441.038,372.681 458.927,374.809 C476.816,376.937 506.992,342.996 506.992,342.996 C506.992,342.996 505.092,324.913 493.937,327.039 C482.782,329.165 467.826,356.051 461.347,357.309 C454.868,358.567 421.177,344.288 421.177,344.288 C420.325648,345.003586 419.618379,345.874775 419.093,346.855 C418.246528,348.409554 417.586623,350.058643 417.127,351.768 L417.127,351.768 Z" id="_Path_33" fill="#006466"></path>
            <path d="M498.482,248.701 C491.939,241.211 482.267,240.401 474.801,241.231 C464.956714,242.201415 456.637149,248.943436 453.648,258.373 C452.241921,263.000175 452.398304,267.961562 454.093,272.491 C460.186,289.318 466.568,300.053 472.516,303.244 C474.786,304.462 479.127,303.65 483.764,302.021 C484.372245,301.802901 485.048607,302.061635 485.356,302.63 L487.313,306.291 L504.527,302.568 C503.10856,299.39812 501.974438,296.108531 501.138,292.738 C503.639,289.579 510.459,262.404 498.482,248.701 Z" id="_Path_34" fill="#FFE1BD"></path>
            <path d="M463.695,272.709 C465.821782,272.500855 467.84059,273.686299 468.695,275.645 C470.11,279.013 472.295,283.725 474.013,285.257 C474.585857,285.632556 475.325102,285.639589 475.905,285.275 C476.474113,285.016692 476.819813,284.428921 476.769,283.806 C476.303441,281.516788 475.637888,279.272847 474.78,277.1 C474.226418,275.826095 474.289854,274.36831 474.952003,273.147308 C475.614152,271.926306 476.801344,271.077934 478.171,270.847 C479.107011,270.731348 480.056345,270.790003 480.971,271.02 C486.06,272.564 482.554,280.544 482.451,284.713 C482.379,287.651 485.896,294.461 487.451,295.073 C492.564,297.079 500.313,295.267 504.423,290.189 C508.533,285.111 509.423,268.14 507.179,257.989 C504.935,247.838 496.807,242.105 494.124,241.452 C493.084542,241.186612 492.007502,241.100043 490.939,241.196 C490.121799,241.272687 489.309356,241.007303 488.695,240.463 C485.99,238.109 477.906,232.73 465.117,238.252 C453.711426,242.945582 446.403597,254.21079 446.767,266.539 C446.956,270.876 450.362,270.556 452.723,269.8 C454.02911,269.402953 455.44767,269.70974 456.473,270.611 C458.49228,272.268252 461.102081,273.026402 463.695,272.709 Z" id="_Path_35" fill="#0B0B3A"></path>
            <path d="M486.781,309.047 C486.781,309.047 485.3,307.397 485.862,306.388 C486.562,305.136 494.114,299.159 502.931,299.473 C504.302,299.522 505.977,299.522 507.621,303.1 C508.537402,304.992681 509.219441,306.990107 509.652,309.048 L486.781,309.048 L486.781,309.047 Z" id="_Path_36" fill="#007D87"></path>
            <path d="M520.34,453.651 C519.806,453.779 519.226,453.906 518.622,454.023 C511.137,455.416 498.963,455.578 498.963,455.578 C474.963,455.149 462.833,432.791 458.934,426.118 C458.182771,424.872708 457.541992,423.564047 457.019,422.207 C458.389,421.476 474.691,412.686 473.819,382.669 C473.638,376.449 473.726,362.523 470.628,357.115 C468.922,354.144 463.874,348.121 460.706,341.774 C458.106,336.551 456.761,331.109 459.606,326.954 C466.662,316.591 477.791,311.078 477.791,311.078 C477.791,311.078 498.216,302.897 515.612,304.753 C526.648,305.913 536.477,311.112 539.1,325.004 C545.865,360.781 520.34,453.651 520.34,453.651 Z" id="_Path_37" fill="#007D87"></path>
            <path d="M480.494,374.812 C483.46,404.343 463.356,422.938 458.934,426.118 C458.182771,424.872708 457.541992,423.564047 457.019,422.207 C458.389,421.476 473.719,408.171 473.819,382.669 C473.845,376.446 473.726,362.523 470.628,357.115 C468.922,354.144 463.874,348.121 460.706,341.774 L462.052,341.252 L470.245,339.894 L474.4,343.283 C474.4,343.283 478.573,355.682 480.494,374.812 Z" id="_Path_38" fill="#00B3B7" opacity="0.18"></path>
            <path d="M520.34,453.651 C519.806,453.779 519.226,453.906 518.622,454.023 C520.154,445.957 529.85,395.306 533.007,376.936 C539.239,340.67 532.752,322.301 529.096,315.72 C526.141,310.401 520.451,307.585 515.611,304.753 C526.647,305.913 536.476,311.112 539.099,325.004 C545.865,360.781 520.34,453.651 520.34,453.651 Z" id="_Path_39" fill="#00B3B7" opacity="0.45"></path>
            <path d="M402.589,561.87 C400.770031,562.584093 398.835074,562.956982 396.881,562.97 C393.357,562.97 392.333,561.653 392.333,561.653 L392.333,553.617 L403.942,552.123 L402.589,561.87 Z" id="_Path_40" fill="#FFE1BD"></path>
            <path d="M493.798,449.488 C493.728,454.712 492.342,463.045 484.513,465.398 C472.833,468.898 464.205,466.911 450.663,464.572 C439.319,462.625 409.443,456.194 403.953,454.108 C403.62848,453.981613 403.260819,454.042925 402.994873,454.267779 C402.728927,454.492634 402.607333,454.844982 402.678,455.186 C405.269,467.847 407.34,473.319 409.019,492.318 C410.43,508.28 404.297,553.461 404.297,553.461 C403.027938,553.839731 401.73685,554.140294 400.431,554.361 C399.694394,554.48075 398.950156,554.547588 398.204,554.561 C396.033203,554.51807 393.867407,554.335694 391.72,554.015 C391.72,554.015 379.606,487.476 377.968,460.515 C376.33,433.554 378.907,431.328 391.161,425.615 C403.415,419.902 458.196,422.015 458.196,422.015 L458.21,422.029 C458.364,422.505 461.445,430.922 470.535,438.541 C477.249601,444.08155 485.248916,447.845832 493.798,449.488 L493.798,449.488 Z" id="_Path_41" fill="#3D3D72"></path>
            <path d="M460.484,426.668 C459.597892,425.186237 458.837563,423.632797 458.211,422.024 L458.197,422.01 C458.197,422.01 457.562,421.986 456.464,421.951 C457.695255,423.612856 459.038369,425.188843 460.484,426.668 Z" id="Path" fill="#33305B"></path>
            <path d="M486.247,447.389 C485.147,451.345 482.777,455.2 477.847,456.682 C466.167,460.182 457.539,458.195 443.997,455.856 C432.653,453.909 402.776,447.478 397.286,445.391 C396.961592,445.265115 396.59432,445.326642 396.32868,445.551439 C396.063039,445.776212 395.941546,446.128231 396.012,446.469 C398.603,459.13 400.674,464.602 402.353,483.601 C403.453,496.03 402.984,536.548 402.722,553.881 C403.639,553.656 404.298,553.46 404.298,553.46 C404.298,553.46 410.431,508.279 409.02,492.317 C407.34,473.317 405.269,467.846 402.678,455.186 C402.607605,454.844978 402.729217,454.492751 402.995022,454.267807 C403.260826,454.042863 403.628315,453.981176 403.953,454.107 C409.443,456.194 439.319,462.625 450.663,464.571 C464.206,466.91 472.833,468.899 484.513,465.398 C492.342,463.045 493.728,454.712 493.798,449.488 C491.237086,448.957186 488.714474,448.255959 486.247,447.389 L486.247,447.389 Z" id="Path" fill="#33305B"></path>
            <path d="M392.135,560.529 C393.979203,561.234332 395.924549,561.639471 397.897,561.729 C399.852066,561.733111 401.785949,561.324184 403.572,560.529 C403.572,560.529 409.418,567.974 406.312,576.27 C406.141662,576.703724 405.721965,576.987894 405.256,576.985076 L366.051,576.985076 C365.57256,576.991237 365.177218,576.613238 365.16169,576.135 C365.149,575.169 365.537,573.63 367.918,572.901 C371.536,571.792 375.271,571.179 378.072,570.187 C380.873,569.195 384.894,565.081 387.146,564.322 C389.110426,563.512816 390.829968,562.205496 392.135,560.529 L392.135,560.529 Z" id="_Path_42" fill="#1A1A47"></path>
            <path d="M374.35,364.025 C374.35,364.025 370.861,363.113 369.05,362.743 C368.409554,362.615858 367.763051,362.521403 367.113,362.46 C366.346101,362.396037 365.574397,362.420194 364.813,362.532 L346.069,365.126 C345.527034,365.193589 345.031088,364.813838 344.955,364.273 C344.851217,363.544528 345.125594,362.813356 345.683,362.333 L347.515,360.756 L352.989,356.038 C355.7,353.706 357.848,353.289 361.432,353.11 C362.734886,353.293163 364.025556,353.554636 365.297,353.893 C368.97,354.566 369.807,354.993 372.255,355.493 C372.930017,355.645227 373.61408,355.754116 374.303,355.819 C374.574096,355.867017 374.852329,355.856446 375.119,355.788 C375.907465,358.532691 375.632896,361.47369 374.35,364.025 L374.35,364.025 Z" id="_Path_43" fill="#FFE1BD"></path>
            <path d="M402.965,365.887 C402.941351,365.92481 402.892724,365.938269 402.853,365.918 C402.373,365.718 399.444,364.518 397.853,363.95 C397.265,363.744 396.71,363.588 396.23,363.467 C395.390678,363.277889 394.534232,363.175022 393.674,363.16 L374.859,363.16 C374.272466,363.172289 373.786656,362.707504 373.773,362.121 C373.783056,361.399775 374.153107,360.731356 374.759,360.34 L376.79,359.029 C374.869,360.489 374.559,361.588 375.522,361.704 C376.292,361.797 378.115,361.595 382.734,360.309 C382.834,360.28 382.879,360.443 382.787,360.5 C382.299684,360.713635 382.054365,361.26249 382.220218,361.768069 C382.38607,362.273647 382.908831,362.570537 383.428,362.454 C384.204,362.416 387.503,362.207 388.263,362.164 C391.213,361.995 395.512,361.717 396.338,361.864 C397.781922,362.124066 399.176598,362.607176 400.472,363.296 C401.28,363.717 402.049,362.796 402.343,361.934 C402.80878,360.52439 403.363219,359.145639 404.003,357.806 C404.265061,357.890955 404.542253,357.918912 404.816,357.888 C405.211177,360.691567 404.551572,363.542017 402.965,365.887 Z" id="_Path_44" fill="#F4F4F4"></path>
            <path d="M477.033,320.732 C474.553,319.218 467.052,315.052 457.381,330.132 C447.71,345.212 439.974,356.532 436.589,358.56 C433.204,360.588 424.889,359.14 421.889,359.14 C418.889,359.14 375.002,355.716 375.002,355.716 C373.781106,358.400605 372.950689,361.246117 372.536,364.166 C372.536,364.166 412.75,374.71 437.676,374.806183 C462.602,374.902 481.557,337.187 482.427,332.641 C483.297,328.095 482.959,324.351 477.033,320.732 Z" id="_Path_45" fill="#007D87"></path>
            <g id="_Group_2" transform="translate(452.000000, 271.000000)" fill="#1A1A47">
                <path d="M0.974,14.6100588 C0.702958176,14.6138385 0.465405483,14.4294287 0.401918808,14.1658991 C0.338432133,13.9023695 0.465945439,13.630012 0.709,13.51 L22.333,2.427 C24.78,1.173 29.789,-1.392 33.507,4.062 C33.687597,4.32682054 33.6193204,4.6879028 33.3544999,4.86849988 C33.0896794,5.04909696 32.7285971,4.98082044 32.548,4.716 C29.648,0.461 26.192,1.752 22.903,3.44 L1.239,14.54 C1.15751332,14.5841334 1.06665181,14.6081346 0.974,14.6100588 L0.974,14.6100588 Z" id="_Path_46"></path>
            </g>
            <path d="M474.692,274.812 L477.303,283.153 C477.846969,283.694171 478.598801,283.972992 479.364095,283.917369 C480.129388,283.861747 480.833001,283.477141 481.293,282.863 C483.251,280.609 484.955,272.781 481.365,271.476 C477.775,270.171 475.599,272.02 474.692,274.812 Z" id="_Path_47" fill="#FFE1BD"></path>
            <path d="M572.976,395.602 C572.976,353.48 571.985,323.802 545.304,319.334 C509.004,313.259 480.604,344.69 486.417,404.913 C489.747,439.42 475.597,451.264 463.546,458.003 C455.754,462.361 440.671,461.426 440.671,461.426 C440.671,461.426 433.685,460.598 428.996,460.156 C431.896,461.494 494.052,492.123 538.404,469.492 C577.717,449.433 572.976,420.383 572.976,395.602 Z" id="Path" fill="#E8F6F7"></path>
            <path d="M572.976,395.602 C572.976,353.48 571.985,323.802 545.304,319.334 C544.022,319.119 542.75,318.957 541.489,318.834 C512.404,321.713 493.347,352.344 498.421,404.934 C501.751,439.441 487.601,451.284 475.55,458.024 C467.758,462.382 452.675,461.447 452.675,461.447 C452.675,461.447 452.321,461.336 451.675,461.141 C448.020319,461.506013 444.343774,461.602272 440.675,461.429 C440.675,461.429 433.689,460.601 429,460.159 C431.9,461.497 494.056,492.126 538.408,469.495 C577.717,449.433 572.976,420.383 572.976,395.602 Z" id="Path" fill="#D0E0E2"></path>
        </g>
    </g>
</svg>