<?xml version="1.0" encoding="UTF-8"?>
<svg width="200px" height="200px" viewBox="0 0 200 200" version="1.1" xmlns="http://www.w3.org/2000/svg" xmlns:xlink="http://www.w3.org/1999/xlink">
    <title>services-icon-1</title>
    <g id="Page-1" stroke="none" stroke-width="1" fill="none" fill-rule="evenodd">
        <g id="services-icon-1" fill="#5A30BD" fill-rule="nonzero">
            <path d="M33.887,172.92 L6.061,172.92 L6.061,130.245 C6.061,128.571301 4.70419893,127.2145 3.0305,127.2145 C1.35680107,127.2145 0,128.571301 0,130.245 L0,196.968 C0,198.641699 1.35680107,199.9985 3.0305,199.9985 C4.70419893,199.9985 6.061,198.641699 6.061,196.968 L6.061,178.98 L24.583,178.98 L24.583,196.969 C24.583,198.642699 25.9398011,199.9995 27.6135,199.9995 C29.2871989,199.9995 30.644,198.642699 30.644,196.969 L30.644,178.98 L33.887,178.98 C35.5604228,178.98 36.917,177.623423 36.917,175.95 C36.917,174.276577 35.5604228,172.92 33.887,172.92 Z" id="Path"></path>
            <path d="M196.97,127.213 C195.29632,127.214655 193.940102,128.57132 193.939,130.245 L193.939,172.92 L166.115,172.92 C165.019545,172.900097 163.998676,173.473123 163.445122,174.418637 C162.891568,175.364151 162.891568,176.534849 163.445122,177.480363 C163.998676,178.425877 165.019545,178.998903 166.115,178.979 L169.358,178.979 L169.358,196.968 C169.358,198.641699 170.714801,199.9985 172.3885,199.9985 C174.062199,199.9985 175.419,198.641699 175.419,196.968 L175.419,178.98 L193.939,178.98 L193.939,196.969 C193.939,198.051693 194.51661,199.052143 195.45425,199.59349 C196.39189,200.134837 197.54711,200.134837 198.48475,199.59349 C199.42239,199.052143 200,198.051693 200,196.969 L200,130.245 C200,128.571253 198.643746,127.214104 196.97,127.213 L196.97,127.213 Z" id="Path"></path>
            <path d="M151.515,134.285 C151.515,132.611644 150.159356,131.254656 148.486,131.253 L51.515,131.253 C49.8407488,131.253 48.4835,132.610249 48.4835,134.2845 C48.4835,135.958751 49.8407488,137.316 51.515,137.316 L96.97,137.316 L96.97,196.968 C96.97,198.641699 98.3268011,199.9985 100.0005,199.9985 C101.674199,199.9985 103.031,198.641699 103.031,196.968 L103.031,137.317 L148.486,137.317 C150.159356,137.315344 151.515,135.958356 151.515,134.285 Z" id="Path"></path>
            <path d="M22.365,87.15 C23.5957115,87.4506884 24.8580887,87.6024423 26.125,87.602001 C34.2512821,87.5712568 40.9515346,81.2243082 41.422012,73.1115986 C41.8924894,64.9988889 35.9708387,57.919963 27.9025869,56.9500561 C19.8343351,55.9801493 12.4036854,61.4539582 10.9380415,69.4470361 C9.47239757,77.440114 14.4775259,85.1941988 22.365,87.15 L22.365,87.15 Z M19.855,65.15 C21.5733712,63.5901777 23.8122625,62.7282153 26.133,62.7329802 C26.9308193,62.7341399 27.7256935,62.8298068 28.501,63.018 C32.6911114,64.0879795 35.6165865,67.8706663 35.5985941,72.1951966 C35.5804352,76.5197269 32.6234411,80.2778262 28.4245317,81.3127413 C24.2256223,82.3476564 19.8608786,80.3941631 17.8352036,76.5733608 C15.8095286,72.7525585 16.6420549,68.0436283 19.855,65.149 L19.855,65.15 Z" id="Shape"></path>
            <path d="M69.153,153.174 C67.5209216,148.227987 62.9269735,144.865092 57.719,144.804 L44.249,144.641 C41.7501887,144.624564 39.7307197,142.59885 39.722,140.1 L39.322,113.806 L61.194,120.8 C63.3300977,121.48528 65.6264137,121.489474 67.765,120.812 L88.448,114.277 C90.9620996,113.494239 93.0426605,111.710279 94.1999077,109.345075 C95.3571548,106.979871 95.488853,104.242372 94.564,101.777 L94.564,101.777 C92.7757426,97.0686204 87.65282,94.542738 82.829,95.991 L63.937,101.891 C63.1581895,102.135422 62.3176799,102.093574 61.567,101.773 L39.848,92.517 C37.6037688,91.5612408 35.1564748,91.1807416 32.728,91.41 L20.471,92.554 C14.4579693,93.1274997 9.9235203,98.2715305 10.109,104.309 L11.881,151.236 C12.1979357,160.492913 19.8957218,167.776289 29.156,167.581 L47.336,167.141 C48.9416417,167.049246 50.3857985,168.111793 50.776,169.672 L57.168,192.21 C58.4878992,196.81102 62.6894218,199.98621 67.476,200 L69.5,200 C73.0031632,200 76.2938144,198.320018 78.3470878,195.48167 C80.4003611,192.643321 80.9668043,188.992037 79.87,185.665 L69.153,153.174 Z M73.438,191.931 C72.5314328,193.200208 71.0647034,193.949795 69.505,193.941077 L67.476,193.941077 C65.3980482,193.935065 63.5738662,192.557147 63,190.56 L56.61,168.025 C55.4478026,163.914759 51.6953903,161.077779 47.424,161.08 L47.192,161.08 L29.006,161.523 C26.1409001,161.620191 23.3564891,160.564376 21.2761661,158.591941 C19.195843,156.619507 17.9933817,153.895213 17.938,151.029 L16.166,104.1 C16.0828442,101.265366 18.2146563,98.8530752 21.038,98.587 L33.29,97.44 C34.7166423,97.3100267 36.1533307,97.5336185 37.473,98.091 L59.189,107.336 C61.2660086,108.219611 63.589773,108.334824 65.744,107.661 L84.6,101.778 C86.3649618,101.253749 88.2356054,102.179042 88.89,103.9 C89.2286011,104.806148 89.1790248,105.811755 88.7529362,106.680204 C88.3268476,107.548652 87.5618696,108.20326 86.638,108.49 L65.938,115.029 C64.9945758,115.328785 63.9814242,115.328785 63.038,115.029 L37.15,106.75 C36.2208422,106.452009 35.205037,106.619726 34.4209828,107.20058 C33.6369286,107.781434 33.1805886,108.704334 33.195,109.68 L33.661,140.18 C33.7603116,145.946848 38.4101905,150.598495 44.177,150.7 L57.647,150.863 C60.2668386,150.895726 62.577482,152.586744 63.401,155.074 L74.117,187.565 C74.6115273,189.044378 74.3584496,190.671679 73.438,191.931 L73.438,191.931 Z" id="Shape"></path>
            <path d="M173.877,87.6000743 C175.143912,87.6004616 176.406292,87.4487075 177.637,87.148 C185.171598,85.2434173 190.125878,78.0472312 189.216144,70.3290719 C188.306411,62.6109125 181.814734,56.7638522 174.043795,56.6633209 C166.272856,56.5627896 159.632092,62.2399578 158.523,69.932 C157.882436,74.3803758 159.208801,78.8873616 162.156802,82.2796556 C165.104803,85.6719497 169.382762,87.6139148 173.877,87.6000743 Z M164.529,70.754 C165.090055,67.0106499 167.832833,63.9643871 171.497,63.015 C172.273951,62.8265164 173.070514,62.7308482 173.87,62.73 C176.605888,62.7356701 179.204181,63.9303841 180.989415,66.0035593 C182.774649,68.0767345 183.570473,70.8235747 183.17,73.53 C182.403981,78.6778461 177.609846,82.2300188 172.462,81.4639999 C167.314154,80.6979809 163.761981,75.9038461 164.528,70.756 L164.529,70.754 Z" id="Shape"></path>
            <path d="M188.116,151.257 L189.896,104.289 C190.06643,98.257771 185.532376,93.1269013 179.526,92.554 L167.283,91.41 C164.852314,91.1829911 162.403306,91.5633828 160.156,92.517 L141.964,100.236 C140.885937,100.699595 139.646577,100.586721 138.67,99.936 L125.494,90.93 C121.121727,88.0094896 115.212113,89.1638327 112.260238,93.5149915 C109.308362,97.8661503 110.42018,103.783912 114.75,106.767 L134.65,120.537 C137.34673,122.391988 140.805874,122.735827 143.815,121.448 L160.671,114.254 L160.271,140.112 C160.227323,142.592656 158.228595,144.594034 155.748,144.641 L142.273,144.804 C137.06514,144.866457 132.472442,148.23122 130.843,153.178 L120.125,185.665 C119.027919,188.992874 119.594936,192.645104 121.649377,195.483697 C123.703817,198.32229 126.995955,200.002205 130.5,200.000002 L132.524,200.000002 C137.310212,199.987694 141.511921,196.81287 142.831,192.212 L149.221,169.678 C149.634182,168.133676 151.061553,167.081208 152.659,167.143 L170.847,167.583 C180.079482,167.727837 187.742712,160.483069 188.116,151.257 Z M143.388,168.022 L137,190.56 C136.42758,192.557432 134.603826,193.936049 132.526,193.942 L130.5,193.942 C128.942132,193.942 127.479017,193.193875 126.565975,191.931612 C125.652933,190.669349 125.400785,189.045722 125.888,187.566 L136.6,155.078 C137.420885,152.589976 139.730276,150.897092 142.35,150.863 L155.825,150.7 C161.585449,150.598627 166.231434,145.95441 166.335,140.194 L166.805,109.684 C166.823098,108.65737 166.319526,107.69156 165.46743,107.118648 C164.615334,106.545735 163.530903,106.443841 162.587,106.848 L141.442,115.873 C140.341239,116.342723 139.077136,116.220269 138.087,115.548 L118.187,101.778 C117.392143,101.231448 116.857254,100.38186 116.708002,99.428843 C116.55875,98.4758261 116.808292,97.5033886 117.398,96.74 C118.517885,95.2893984 120.565821,94.9456065 122.098,95.951 L135.273,104.96 C137.952358,106.758426 141.359372,107.080126 144.328,105.815 L162.524,98.1 C163.849254,97.5412379 165.291778,97.3176468 166.724,97.449 L178.967,98.592 C181.782769,98.8584548 183.912768,101.257488 183.844,104.085 L182.064,151.053 C182.004147,153.914918 180.800047,156.633522 178.72088,158.601063 C176.641713,160.568605 173.860865,161.621006 171,161.523 L152.8,161.08 C148.441306,160.959811 144.560425,163.822229 143.388,168.022 Z" id="Shape"></path>
            <path d="M57.731,73.34 C58.793782,73.8418229 60.0511679,73.6814799 60.954,72.929 L83.547,54.236 L140.981,54.236 C142.654746,54.2348959 144.011,52.8777466 144.011,51.204 L144.011,3.031 C144.011,1.35764386 142.654356,0.00110370609 140.981,0 L59.021,0 C57.3474821,0.00110317631 55.9911032,1.35748209 55.99,3.031 L55.99,70.6 C55.992302,71.7729671 56.6700893,72.8396744 57.731,73.34 L57.731,73.34 Z M62.05,6.063 L137.95,6.063 L137.95,48.173 L82.45,48.173 C81.7439564,48.1749389 81.060574,48.4224131 80.517,48.873 L62.05,64.156 L62.05,6.063 Z" id="Shape"></path>
        </g>
    </g>
</svg>