<?xml version="1.0" encoding="UTF-8"?>
<svg width="200px" height="200px" viewBox="0 0 200 200" version="1.1" xmlns="http://www.w3.org/2000/svg" xmlns:xlink="http://www.w3.org/1999/xlink">
    <title>services-icon-2</title>
    <g id="Page-1" stroke="none" stroke-width="1" fill="none" fill-rule="evenodd">
        <g id="services-icon-2" transform="translate(0.000000, -0.000001)" fill="#5A30BD" fill-rule="nonzero">
            <path d="M40.033,34.5720007 C49.5796639,34.5731051 57.319711,26.8349979 57.3209996,17.288334 C57.3222882,7.74167016 49.5843302,0.00147377476 40.0376664,1.04085531e-06 C30.4910025,-0.00147169305 22.7506569,7.7363369 22.749,17.2830007 C22.7583662,26.8256178 30.490386,34.5598744 40.033,34.5720007 Z M40.033,6.04500054 C44.5810058,6.04419213 48.6815414,8.78348947 50.4220811,12.9852605 C52.1626208,17.1870315 51.2002944,22.0235664 47.9839394,25.239063 C44.7675844,28.4545596 39.9307928,29.415595 35.7294865,27.6739339 C31.5281802,25.9322728 28.7899775,21.8310062 28.7919989,17.2830007 C28.8002667,11.0786811 33.8286784,6.05161139 40.033,6.04500054 L40.033,6.04500054 Z" id="Shape"></path>
            <path d="M37.014,58.8460007 L37.014,63.0460007 C36.9941258,64.1382212 37.5654437,65.156088 38.508161,65.708016 C39.4508784,66.2599441 40.6181216,66.2599441 41.560839,65.708016 C42.5035563,65.156088 43.0748742,64.1382212 43.055,63.0460007 L43.055,58.8460007 C43.0550008,57.1776148 41.7033851,55.8246564 40.035,55.8230007 C38.366453,55.8246559 37.0145509,57.177453 37.014,58.8460007 Z" id="Path"></path>
            <path d="M40.035,72.6330007 C39.2329852,72.633796 38.4641348,72.953158 37.8975873,73.5208307 C37.3310399,74.0885034 37.013204,74.8579859 37.0139985,75.6600007 L37.0139985,79.8600007 C37.0439645,81.5067556 38.3874725,82.8260394 40.0345,82.8260394 C41.6815275,82.8260394 43.0250355,81.5067556 43.0550015,79.8600007 L43.0550015,75.6600007 C43.0566579,73.9902814 41.7047187,72.6352085 40.035,72.6330007 Z" id="Path"></path>
            <path d="M40.035,89.4460007 C39.2329852,89.446796 38.4641348,89.766158 37.8975873,90.3338307 C37.3310399,90.9015034 37.013204,91.6709859 37.0139985,92.4730007 L37.0139985,94.4860007 C37.0439645,96.1327556 38.3874725,97.4520394 40.0345,97.4520394 C41.6815275,97.4520394 43.0250355,96.1327556 43.0550015,94.4860007 L43.0550015,92.4730007 C43.0566579,90.8032814 41.7047187,89.4482085 40.035,89.4460007 Z" id="Path"></path>
            <path d="M105.24805,22.4120007 C105.256859,19.4472272 104.078546,16.6022784 101.976,14.5120007 C97.557121,10.2965013 90.605879,10.2965013 86.187,14.5120007 L63.559,37.1480007 C60.9703557,39.7510119 57.4480568,41.2104146 53.777,41.2010007 L19.308,41.2010007 C8.64889386,41.2125756 0.0110228554,49.850894 0,60.5100007 L0,110.877001 C0.00716374092,117.040842 5.00215824,122.035837 11.166,122.043001 C12.9622295,122.035115 14.7293809,121.588864 16.314,120.743001 L16.314,186.154001 C16.3726975,191.78111 19.9409791,196.772023 25.2465488,198.647852 C30.5521185,200.52368 36.4644487,198.884716 40.047,194.545001 C43.6295513,198.884716 49.5418815,200.52368 54.8474512,198.647852 C60.1530209,196.772023 63.7213025,191.78111 63.78,186.154001 L63.78,73.2580007 C63.7728776,70.3423636 64.9289579,67.5443036 66.992,65.4840007 L101.976,30.3070007 C104.077312,28.217943 105.255522,25.3750424 105.24805,22.4120007 L105.24805,22.4120007 Z M57.737,186.156001 C57.6900906,190.173329 54.4201024,193.405358 50.4025,193.405358 C46.3848976,193.405358 43.1149094,190.173329 43.068,186.156001 L43.068,127.662001 C43.0878774,126.569421 42.5163697,125.551221 41.5733416,124.999112 C40.6303135,124.447003 39.4626865,124.447003 38.5196584,124.999112 C37.5766303,125.551221 37.0051226,126.569421 37.025,127.662001 L37.025,186.156001 C36.9442413,190.14893 33.6842459,193.343657 29.6905,193.343657 C25.6967541,193.343657 22.4367587,190.14893 22.356,186.156001 L22.356,113.011001 L57.737,113.011001 L57.737,186.155001 L57.737,186.156001 Z M97.7,26.0390007 L62.707,61.2230007 C59.5139143,64.4140841 57.7251425,68.7467269 57.737,73.2610007 L57.737,106.973001 L22.353,106.973001 L22.331,63.3340007 C22.3508774,62.2414208 21.7793697,61.2232205 20.8363416,60.6711118 C19.8933135,60.1190031 18.7256865,60.1190031 17.7826584,60.6711118 C16.8396303,61.2232205 16.2681226,62.2414208 16.288,63.3340007 L16.288,110.877001 C16.288,113.706079 13.9945786,115.999501 11.1655,115.999501 C8.3364214,115.999501 6.043,113.706079 6.043,110.877001 L6.043,60.5100007 C6.05071434,53.1868174 11.9848179,47.2518191 19.308,47.2430007 L37.217,47.2430007 C37.628299,48.4484065 38.7608556,49.2586357 40.0345,49.2586357 C41.3081444,49.2586357 42.440701,48.4484065 42.852,47.2430007 L53.777,47.2430007 C59.0517175,47.2587722 64.1133706,45.1629539 67.833,41.4230007 L90.459,18.7930007 C92.4852997,16.8562232 95.6767003,16.8562232 97.703,18.7930007 C98.6653721,19.7532744 99.2053922,21.0571068 99.2053922,22.4166234 C99.2053922,23.7761399 98.6631669,25.0795243 97.7,26.0390007 Z" id="Shape"></path>
            <path d="M196.4,0 L123.027,0 C121.964692,0 120.980175,0.556911798 120.434557,1.46839363 C119.888939,2.37987547 119.862523,3.51104356 120.365,4.44700072 L131.687,25.5470007 L120.365,46.6370007 C119.862383,47.5739253 119.888547,48.7059332 120.433915,49.6186355 C120.979283,50.5313379 121.963774,51.0907159 123.027,51.0920007 L193.378,51.0920007 L193.378,87.2800007 L163.494,127.106001 L150.807,110.195001 C150.211246,109.474366 149.325007,109.057152 148.39,109.057152 C147.454993,109.057152 146.568754,109.474366 145.973,110.195001 L115.144,151.279001 L102.457,134.368001 C101.861246,133.647366 100.975007,133.230152 100.04,133.230152 C99.1049931,133.230152 98.2187541,133.647366 97.623,134.368001 L72.128,168.344001 C71.4563319,169.206424 71.3025697,170.364269 71.7258671,171.372104 C72.1491645,172.379939 73.0835732,173.080745 74.1696179,173.204917 C75.2556625,173.329089 76.3241409,172.857281 76.964,171.971001 L100.038,141.217001 L139.177,193.377001 L74.546,193.377001 C72.8981476,193.406975 71.5779795,194.751376 71.5779795,196.399501 C71.5779795,198.047626 72.8981476,199.392026 74.546,199.422001 L196.4,199.422001 C198.068776,199.422001 199.421,198.067777 199.421,196.399001 L199.421,3.02300072 C199.421,1.35422466 198.068776,0 196.4,0 Z M193.377,193.378001 L146.733,193.378001 L118.923,156.315001 L148.389,117.045001 L193.378,177.003001 L193.378,193.378001 L193.377,193.378001 Z M193.377,166.933001 L167.27,132.133001 L193.377,97.3460007 L193.377,166.929001 L193.377,166.933001 Z M193.377,45.0440007 L128.077,45.0440007 L137.777,26.9730007 C138.255413,26.0811055 138.255413,25.0088959 137.777,24.1170007 L128.077,6.04600072 L193.377,6.04600072 L193.377,45.0460007 L193.377,45.0440007 Z" id="Shape"></path>
        </g>
    </g>
</svg>