<?xml version="1.0" encoding="UTF-8"?>
<svg width="200px" height="200px" viewBox="0 0 200 200" version="1.1" xmlns="http://www.w3.org/2000/svg" xmlns:xlink="http://www.w3.org/1999/xlink">
    <title>services-icon-3</title>
    <g id="Page-1" stroke="none" stroke-width="1" fill="none" fill-rule="evenodd">
        <g id="services-icon-3" fill="#5A30BD" fill-rule="nonzero">
            <path d="M195.569,147.752 C193.331,145.875 190.669,145.725 187.159,146.621 C188.111051,142.946786 186.588046,139.077499 183.387,137.038 C181.408,135.521 178.91,135.391 175.694,136.138 L175.694,121.283 C175.716676,108.105695 166.228304,96.8349254 153.24,94.611 L133.223,91.156 C128.141712,90.2767348 124.054494,86.4881228 122.793,81.488 L121.252,75.388 C131.236,67.358 137.826,53.688 137.826,38.217 C137.826,15.357 122.849,0 100.561,0 C78.273,0 63.292,15.357 63.292,38.218 C63.292,53.685 69.87,67.335 79.842,75.373 L78.301,81.488 C77.0363786,86.487779 72.948519,90.2755331 67.867,91.156 L47.85,94.611 C34.8623889,96.8363948 25.3744682,108.106126 25.395,121.283 L25.395,129.625 L3.022,129.625 C1.35517392,129.625548 0.00330819868,130.975177 0,132.642 L0,186.967 C0,188.634119 1.3538805,189.984553 3.021,189.984 L27.93,189.984 C48.3297474,196.112958 69.5194658,199.210721 90.82,199.178257 C121.888,199.178257 159.506,192.255 191.956,166.528 C192.678,166.028 199.037,161.475 199.321,155.494 C199.414,153.478 198.842,150.502 195.569,147.752 Z M25.395,183.946 L6.043,183.946 L6.043,135.663 L25.395,135.663 L25.395,183.946 L25.395,183.946 Z M179.713,141.831 C181.343,143.08 181.384,144.066 181.396,144.39 C181.452,145.854 180.151,147.971 178.018,149.982 C177.349,150.261 176.708,150.533 175.994,150.833 C164.428364,155.95716 152.452983,160.101378 140.194,163.222 C140.514026,162.288331 140.705123,161.315352 140.762,160.33 C140.853855,158.774755 140.781792,157.214161 140.547,155.674 C148.937004,153.174992 157.154549,150.129824 165.147,146.558 C170.682,144.192 178.261,140.931 179.713,141.832 L179.713,141.831 Z M134.873,97.571 L152.21,100.571 C162.299311,102.2968 169.671321,111.050163 169.656024,121.286 L169.656024,138.136 C167.588,138.947 165.305,139.929 162.774,141.015 C154.926527,144.523162 146.85637,147.510302 138.616,149.957 C138.110711,149.117976 137.509317,148.340728 136.824,147.641 C134.052043,145.052442 130.379911,143.646872 126.588,143.723 C118.911976,143.976979 111.227565,143.738824 103.582,143.01 L103.582,107.957 L116.162,118.996 C116.714984,119.478088 117.423381,119.744403 118.157,119.746 C118.283078,119.745925 118.409016,119.737573 118.534,119.721 C119.392147,119.611425 120.161615,119.137794 120.646,118.421 L134.873,97.571 Z M100.561,97.652 L83.103,85.969 C83.5400235,85.0006752 83.8942884,83.9970919 84.162,82.969 L85.184,78.918 C94.72125,84.2938041 106.373555,84.2983542 115.915,78.93 L116.933,82.969 C117.201087,83.9963289 117.55362,84.9997441 117.987,85.969 L100.561,97.652 Z M121.288,91.033 C123.295925,93.2565588 125.79574,94.9800616 128.588,96.066 L117.578,112.202 L105.505,101.609 L121.288,91.033 Z M69.33,38.218 C69.2819634,33.7309454 70.0204617,29.270172 71.512,25.038 C75.985,27.463 84.935,31.166 97.884,31.166 C105.762956,31.1018248 113.588683,29.8676914 121.105,27.504 C122.136604,27.1888917 122.921738,26.3473653 123.164648,25.2964156 C123.407559,24.2454659 123.071342,23.1447571 122.282648,22.4089156 C121.493954,21.6730741 120.372604,21.4138917 119.341,21.729 C95.13,29.105 79.63,22.67 74.13,19.595 C79.374,11.038 88.64,6.042 100.563,6.042 C119.53,6.042 131.789,18.671 131.789,38.217 C131.789,59.548 117.777,76.905 100.563,76.905 C83.349,76.905 69.33,59.549 69.33,38.218 Z M79.806,91.034 L95.606,101.61 L83.506,112.203 L72.502,96.067 C75.2957689,94.9817396 77.7970331,93.2581822 79.806,91.034 Z M31.4369713,121.283 C31.4201936,111.047669 38.7912272,102.29396 48.88,100.568 L66.217,97.568 L80.443,118.42 C80.9296153,119.134939 81.6984577,119.60796 82.556,119.72 C82.6823233,119.736588 82.8095922,119.744939 82.937,119.745 C83.6692743,119.74262 84.3761491,119.476344 84.928,118.995 L97.54,107.945 L97.54,141.986 C94.3922569,141.244099 91.3924089,139.975934 88.667,138.235 C81.947,134.293 74.25,129.848 31.438,129.641 L31.438,121.283 L31.4369713,121.283 Z M188.363,161.683 C126.604,210.639 45.246,188.951 31.437,184.766 L31.437,135.676 C72.676,135.862 79.537,139.889 85.604,143.45 C91.833,147.1 97.231,150.243 126.814,149.76 C128.928992,149.721546 130.979255,150.489948 132.548,151.909 C134.223,153.596 134.961,156.309 134.734,159.971 C134.678,160.863 134.511,163.556 129.198,165.689 C129.149,165.705 129.024,165.762 128.998,165.77 C123.345,167.97 110.887,169.85 83.651,166.33 C82.5763059,166.182217 81.5049137,166.622194 80.8442487,167.482617 C80.1835837,168.343041 80.0351585,169.491706 80.4554159,170.491801 C80.8756732,171.491897 81.8000395,172.189756 82.877,172.32 C91.8175711,173.559296 100.827529,174.232304 109.853,174.335 C118.853,174.335 125.858,173.388667 130.868,171.496 L130.905,171.496 C147.230693,168.233873 163.14381,163.169526 178.352,156.396 C184.541,153.764 190.384,151.302 191.682,152.381 C193.174,153.634 193.308,154.591 193.282,155.204 C193.173,157.761 189.718,160.726 188.363,161.678 L188.363,161.683 Z" id="Shape"></path>
            <circle id="Oval" cx="15.72" cy="145.594" r="3.019"></circle>
        </g>
    </g>
</svg>